<svg width="106" height="132" viewBox="0 0 106 132" fill="none" xmlns="http://www.w3.org/2000/svg">
<path fill-rule="evenodd" clip-rule="evenodd" d="M46.4 75.1C44.275 76.55 42.15 77.85 40.05 79.05C39.5833 78.6833 39.1167 78.3083 38.65 77.925C38.5333 77.8417 38.425 77.75 38.325 77.65C37.9083 77.3167 37.4833 76.9667 37.05 76.6C36.9333 76.5 36.8167 76.4 36.7 76.3C36.2 75.8833 35.7 75.4583 35.2 75.025C35.1 74.9417 35.0083 74.8583 34.925 74.775C34.4917 74.4083 34.0667 74.0333 33.65 73.65C33.5167 73.5333 33.3833 73.4167 33.25 73.3C32.75 72.85 32.2583 72.3917 31.775 71.925C31.7083 71.875 31.65 71.825 31.6 71.775C31.15 71.3583 30.7 70.9333 30.25 70.5C30.1167 70.3667 29.9917 70.2417 29.875 70.125C29.375 69.6417 28.875 69.15 28.375 68.65C24.55 64.825 21.075 60.9 17.95 56.95C17.4 56.2333 16.8583 55.525 16.325 54.825C14.7417 52.725 13.275 50.6333 11.925 48.55C11.425 47.7833 10.9333 47.0167 10.45 46.25C-0.299993 28.8 -3.17499 12.4 4.62501 4.6C4.79167 4.43333 4.97501 4.25833 5.17501 4.075C5.24167 4.025 5.30834 3.975 5.37501 3.925C5.49167 3.80833 5.61667 3.7 5.75001 3.6C5.83334 3.53333 5.91667 3.46666 6.00001 3.4C6.11667 3.31666 6.24167 3.23333 6.37501 3.15C6.45834 3.08333 6.55001 3.01666 6.65001 2.95C6.76667 2.86666 6.88334 2.79166 7.00001 2.725C7.10001 2.65833 7.20001 2.6 7.30001 2.55C7.41667 2.46666 7.54167 2.39166 7.67501 2.325C7.77501 2.275 7.87501 2.21666 7.97501 2.15C8.09167 2.1 8.21667 2.04166 8.35001 1.975C8.45001 1.925 8.55834 1.875 8.67501 1.825C8.80834 1.75833 8.93334 1.7 9.05001 1.65C9.16667 1.6 9.28334 1.55 9.40001 1.5C9.53334 1.45 9.66667 1.4 9.80001 1.35C9.91667 1.31666 10.0333 1.275 10.15 1.225C10.2833 1.19166 10.4167 1.15 10.55 1.1C10.6833 1.06666 10.8083 1.03333 10.925 0.999997C11.0583 0.949997 11.2 0.90833 11.35 0.874997C11.4667 0.841664 11.5833 0.80833 11.7 0.774997C11.8667 0.741664 12.025 0.70833 12.175 0.674997C12.2917 0.65833 12.4083 0.63333 12.525 0.599997C12.6917 0.566664 12.8667 0.541664 13.05 0.524997C13.15 0.491664 13.25 0.466664 13.35 0.449997C13.6 0.416664 13.85 0.38333 14.1 0.349997C14.1333 0.349997 14.1667 0.349997 14.2 0.349997C14.4833 0.316664 14.775 0.291664 15.075 0.274997C15.175 0.25833 15.275 0.249997 15.375 0.249997C15.575 0.23333 15.775 0.224997 15.975 0.224997C16.0917 0.224997 16.2083 0.216664 16.325 0.199997C16.5083 0.199997 16.7 0.199997 16.9 0.199997C16.9833 0.199997 17.0667 0.199997 17.15 0.199997C17.4667 0.199997 17.7917 0.20833 18.125 0.224997C18.225 0.224997 18.3167 0.224997 18.4 0.224997C18.8 0.25833 19.2 0.291664 19.6 0.324997C19.6667 0.324997 19.7417 0.324997 19.825 0.324997C20.1583 0.35833 20.5 0.399997 20.85 0.449997C20.9667 0.466664 21.075 0.48333 21.175 0.499997C21.5917 0.549997 22.0083 0.60833 22.425 0.674997C22.475 0.691664 22.525 0.699997 22.575 0.699997C22.9583 0.766664 23.3417 0.841664 23.725 0.924997C23.8417 0.941664 23.9583 0.966664 24.075 0.999997C24.9417 1.16666 25.825 1.375 26.725 1.625C26.8417 1.65833 26.9583 1.69166 27.075 1.725C27.475 1.84166 27.8833 1.95833 28.3 2.075C28.35 2.09166 28.4 2.10833 28.45 2.125C28.9 2.25833 29.3583 2.4 29.825 2.55C29.9417 2.6 30.0583 2.64166 30.175 2.675C30.575 2.80833 30.975 2.95 31.375 3.1C31.4583 3.13333 31.5333 3.16666 31.6 3.2C32.0833 3.36666 32.5583 3.54166 33.025 3.725C33.1417 3.775 33.25 3.81666 33.35 3.85C33.75 4.01666 34.15 4.18333 34.55 4.35C34.65 4.4 34.75 4.44166 34.85 4.475C35.3333 4.69166 35.8167 4.90833 36.3 5.125C36.4 5.15833 36.5 5.2 36.6 5.25C37 5.45 37.4083 5.64166 37.825 5.825C37.9417 5.89166 38.0583 5.95 38.175 6C38.6583 6.23333 39.15 6.475 39.65 6.725C39.7167 6.775 39.7917 6.81666 39.875 6.85C40.3083 7.06666 40.7417 7.29166 41.175 7.525C41.2917 7.59166 41.4083 7.65833 41.525 7.725C42.025 7.99166 42.5333 8.26666 43.05 8.55C43.0833 8.58333 43.125 8.60833 43.175 8.625C43.6417 8.89166 44.1083 9.16666 44.575 9.45C44.7 9.525 45.8 10.175 46.225 10.45C44.1083 11.8667 42 13.375 39.9 14.975C39.7 14.875 38.575 14.275 38.2 14.1C38.1167 14.05 38.0333 14 37.95 13.95C37.6167 13.8 37.2917 13.65 36.975 13.5C36.8417 13.4333 36.7083 13.3667 36.575 13.3C36.2083 13.1333 35.8417 12.9667 35.475 12.8C35.3917 12.7667 35.3083 12.725 35.225 12.675C34.9083 12.5417 34.6 12.4083 34.3 12.275C34.1667 12.225 34.0333 12.175 33.9 12.125C33.55 11.975 33.1917 11.825 32.825 11.675C32.7583 11.6583 32.6833 11.6333 32.6 11.6C32.3 11.4833 31.9917 11.3667 31.675 11.25C31.5583 11.2167 31.4417 11.175 31.325 11.125C30.975 11.0083 30.6167 10.8917 30.25 10.775C30.1833 10.7583 30.1167 10.7333 30.05 10.7C29.75 10.6167 29.45 10.525 29.15 10.425C29.05 10.3917 28.9417 10.3583 28.825 10.325C28.475 10.225 28.1333 10.1333 27.8 10.05C27.7333 10.0333 27.675 10.0167 27.625 10C27.325 9.93333 27.025 9.86666 26.725 9.8C26.625 9.78333 26.525 9.75833 26.425 9.725C26.0917 9.65833 25.7583 9.59166 25.425 9.525C25.375 9.525 25.325 9.51666 25.275 9.5C24.975 9.45 24.6833 9.40833 24.4 9.375C24.3167 9.35833 24.225 9.34166 24.125 9.325C23.8083 9.29166 23.4917 9.25833 23.175 9.225C23.125 9.20833 23.0833 9.2 23.05 9.2C22.7667 9.18333 22.4833 9.16666 22.2 9.15C22.1167 9.15 22.0333 9.14166 21.95 9.125C21.6333 9.10833 21.325 9.1 21.025 9.1C21.025 9.1 21.0167 9.1 21 9.1C20.9 9.1 20.8 9.10833 20.7 9.125C20.5833 9.125 20.4667 9.125 20.35 9.125C20.25 9.125 20.1583 9.125 20.075 9.125C19.9417 9.14166 19.8167 9.15 19.7 9.15C19.6167 9.16666 19.5333 9.175 19.45 9.175C19.3167 9.19166 19.1833 9.20833 19.05 9.225C18.9833 9.225 18.9083 9.23333 18.825 9.25C18.6917 9.26666 18.5583 9.28333 18.425 9.3C18.3583 9.3 18.2917 9.30833 18.225 9.325C18.0917 9.34166 17.95 9.36666 17.8 9.4C17.75 9.41666 17.7 9.425 17.65 9.425C17.5 9.45833 17.35 9.49166 17.2 9.525C17.1667 9.54166 17.125 9.55833 17.075 9.575C16.925 9.60833 16.775 9.65 16.625 9.7C16.5917 9.7 16.5583 9.70833 16.525 9.725C16.3583 9.775 16.2083 9.825 16.075 9.875C16.0417 9.875 16.0083 9.88333 15.975 9.9C15.825 9.95 15.675 10.0083 15.525 10.075C15.4917 10.075 15.4667 10.0833 15.45 10.1C15.3 10.1667 15.15 10.2333 15 10.3C14.9667 10.3167 14.9417 10.3333 14.925 10.35C14.775 10.4167 14.6333 10.4833 14.5 10.55C14.4667 10.5667 14.4417 10.5833 14.425 10.6C14.275 10.6667 14.1333 10.7417 14 10.825C13.9667 10.8583 13.9333 10.8833 13.9 10.9C13.7833 10.9833 13.6667 11.0583 13.55 11.125C13.5 11.1583 13.45 11.2 13.4 11.25C13.3 11.3167 13.2 11.3917 13.1 11.475C13.0167 11.525 12.9417 11.5833 12.875 11.65C12.8083 11.7 12.7417 11.7583 12.675 11.825C12.575 11.9083 12.4667 12.0083 12.35 12.125C12.3333 12.1417 12.3083 12.1667 12.275 12.2C10.425 14.05 9.42501 16.6 9.22501 19.65C9.19167 20.0833 9.17501 20.5333 9.17501 21C9.17501 21.45 9.19167 21.9167 9.22501 22.4C9.35001 24.075 9.65001 25.85 10.125 27.725C10.2583 28.275 10.4083 28.825 10.575 29.375C10.7417 29.925 10.925 30.4833 11.125 31.05C12 33.575 13.175 36.25 14.6 39.025C14.75 39.2917 14.9 39.5583 15.05 39.825C15.2333 40.175 15.4167 40.5167 15.6 40.85C15.85 41.3 16.1083 41.75 16.375 42.2C17.575 44.25 18.9 46.35 20.375 48.475C20.875 49.175 21.3917 49.8833 21.925 50.6C25.175 55.025 28.975 59.45 33.275 63.75C33.7083 64.1667 34.1333 64.5833 34.55 65C34.65 65.1 34.75 65.2 34.85 65.3C35.2833 65.7167 35.7083 66.1167 36.125 66.5C36.125 66.5167 36.125 66.525 36.125 66.525C36.5583 66.9083 36.9833 67.2917 37.4 67.675C37.5 67.775 37.6083 67.875 37.725 67.975C38.1417 68.3583 38.5667 68.7417 39 69.125C39 69.125 39.0083 69.1333 39.025 69.15C39.4417 69.5167 39.8583 69.875 40.275 70.225C40.3917 70.3083 40.5 70.4 40.6 70.5C41.0333 70.8667 41.4583 71.225 41.875 71.575C41.8917 71.575 41.9083 71.5833 41.925 71.6C42.3417 71.95 42.7583 72.2833 43.175 72.6C43.275 72.7 43.3833 72.7917 43.5 72.875C43.9167 73.2083 44.3417 73.5417 44.775 73.875C44.7917 73.8917 44.8083 73.9083 44.825 73.925C45.25 74.225 46.275 75 46.4 75.1V75.1ZM96.775 82C96.6917 83.1333 96.525 84.2167 96.275 85.25C96.0917 86.0167 95.8667 86.7583 95.6 87.475C95.2333 88.425 94.7917 89.3167 94.275 90.15C93.7417 90.9667 93.125 91.725 92.425 92.425C92.2417 92.6083 92.0583 92.7833 91.875 92.95C91.8083 93 91.7417 93.0583 91.675 93.125C91.5583 93.225 91.4333 93.3333 91.3 93.45C91.2167 93.5 91.1333 93.5583 91.05 93.625C90.9333 93.725 90.8083 93.8167 90.675 93.9C90.5917 93.9667 90.5 94.025 90.4 94.075C90.2833 94.1583 90.1667 94.2417 90.05 94.325C89.95 94.375 89.85 94.4333 89.75 94.5C89.6333 94.5667 89.5083 94.6333 89.375 94.7C89.275 94.7667 89.175 94.825 89.075 94.875C88.9417 94.9417 88.8167 95 88.7 95.05C88.5833 95.1167 88.475 95.175 88.375 95.225C88.2417 95.275 88.1083 95.325 87.975 95.375C87.875 95.425 87.7667 95.475 87.65 95.525C87.5167 95.575 87.3833 95.625 87.25 95.675C87.1333 95.725 87.0167 95.7667 86.9 95.8C86.7667 95.85 86.625 95.8917 86.475 95.925C86.3583 95.975 86.2417 96.0167 86.125 96.05C85.9917 96.0833 85.85 96.1167 85.7 96.15C85.5833 96.1833 85.4667 96.2167 85.35 96.25C85.1833 96.2833 85.025 96.3167 84.875 96.35C84.7583 96.3833 84.6417 96.4083 84.525 96.425C84.3583 96.4583 84.1833 96.4917 84 96.525C83.9 96.5417 83.8 96.5583 83.7 96.575C83.45 96.6083 83.1917 96.6417 82.925 96.675C82.8917 96.675 82.8667 96.675 82.85 96.675C82.55 96.7083 82.2583 96.7417 81.975 96.775C81.875 96.775 81.775 96.775 81.675 96.775C81.475 96.7917 81.275 96.8083 81.075 96.825C80.9583 96.825 80.8333 96.825 80.7 96.825C80.5167 96.825 80.3333 96.825 80.15 96.825C80.0667 96.825 79.9833 96.825 79.9 96.825C79.5667 96.825 79.2417 96.8167 78.925 96.8C78.825 96.8 78.725 96.8 78.625 96.8C78.2417 96.7833 77.85 96.7583 77.45 96.725C77.3833 96.7083 77.3083 96.7 77.225 96.7C76.8917 96.6667 76.5417 96.625 76.175 96.575C76.075 96.575 75.975 96.5667 75.875 96.55C75.4583 96.4833 75.0417 96.4167 74.625 96.35C74.575 96.35 74.525 96.3417 74.475 96.325C74.0917 96.2583 73.7083 96.1917 73.325 96.125C73.2083 96.0917 73.0917 96.0667 72.975 96.05C72.1083 95.8667 71.225 95.65 70.325 95.4C70.2083 95.3833 70.0917 95.3583 69.975 95.325C69.5583 95.2083 69.15 95.0833 68.75 94.95C68.7 94.9333 68.65 94.925 68.6 94.925C68.1333 94.775 67.675 94.625 67.225 94.475C67.1083 94.4417 66.9917 94.4 66.875 94.35C66.475 94.2167 66.075 94.075 65.675 93.925C65.5917 93.9083 65.5083 93.8833 65.425 93.85C64.9583 93.6667 64.4917 93.4833 64.025 93.3C63.9083 93.2667 63.8 93.225 63.7 93.175C63.3 93.0083 62.8917 92.8417 62.475 92.675C62.3917 92.6417 62.3 92.6 62.2 92.55C61.7167 92.35 61.2333 92.1417 60.75 91.925C60.65 91.875 60.55 91.825 60.45 91.775C60.05 91.5917 59.6417 91.4 59.225 91.2C59.1083 91.15 58.9917 91.1 58.875 91.05C58.3917 90.8 57.9 90.55 57.4 90.3C57.3167 90.2667 57.2417 90.225 57.175 90.175C56.7417 89.9583 56.3083 89.7333 55.875 89.5C55.7583 89.4333 55.6417 89.3667 55.525 89.3C55.0083 89.0333 54.5 88.7583 54 88.475C53.9667 88.4583 53.925 88.4333 53.875 88.4C53.4083 88.1333 52.9417 87.8667 52.475 87.6C52.35 87.525 51.25 86.85 50.825 86.6C52.975 85.1667 55.1083 83.6417 57.225 82.025C57.3 82.05 58.575 82.725 58.95 82.925C59 82.9417 59.0417 82.9583 59.075 82.975C59.4417 83.1583 59.8083 83.3333 60.175 83.5C60.275 83.55 60.3833 83.6 60.5 83.65C60.8833 83.85 61.275 84.0333 61.675 84.2C61.7083 84.2167 61.7417 84.2333 61.775 84.25C62.1417 84.4167 62.5 84.5667 62.85 84.7C62.95 84.75 63.0583 84.8 63.175 84.85C63.5583 85 63.9333 85.15 64.3 85.3C64.35 85.3167 64.3917 85.3333 64.425 85.35C64.775 85.4833 65.125 85.6083 65.475 85.725C65.5583 85.7583 65.65 85.7917 65.75 85.825C66.1333 85.9583 66.5083 86.0833 66.875 86.2C66.9083 86.2167 66.9417 86.2333 66.975 86.25C67.3083 86.35 67.6417 86.45 67.975 86.55C68.075 86.5833 68.175 86.6083 68.275 86.625C68.625 86.7417 68.975 86.8417 69.325 86.925C69.375 86.9417 69.4167 86.95 69.45 86.95C69.7667 87.0333 70.0833 87.1083 70.4 87.175C70.5 87.2083 70.5917 87.2333 70.675 87.25C71.025 87.3167 71.3667 87.3833 71.7 87.45C71.7333 87.45 71.7667 87.4583 71.8 87.475C72.1167 87.525 72.425 87.5667 72.725 87.6C72.8083 87.6167 72.8917 87.6333 72.975 87.65C73.3083 87.7 73.6333 87.7333 73.95 87.75C73.9833 87.7667 74.0167 87.775 74.05 87.775C74.35 87.7917 74.6417 87.8083 74.925 87.825C75.0083 87.8417 75.0833 87.85 75.15 87.85C75.4667 87.8667 75.775 87.875 76.075 87.875C76.0917 87.875 76.1 87.875 76.1 87.875C76.2 87.875 76.3083 87.875 76.425 87.875C76.5417 87.8583 76.65 87.85 76.75 87.85C76.8667 87.85 76.975 87.85 77.075 87.85C77.1917 87.8333 77.3083 87.825 77.425 87.825C77.525 87.8083 77.625 87.8 77.725 87.8C77.8417 87.7833 77.95 87.775 78.05 87.775C78.15 87.7583 78.25 87.7417 78.35 87.725C78.4667 87.7083 78.5833 87.6917 78.7 87.675C78.7833 87.6583 78.8667 87.65 78.95 87.65C79.0667 87.6167 79.1833 87.5917 79.3 87.575C79.3833 87.5583 79.4667 87.5417 79.55 87.525C79.6667 87.5083 79.7833 87.4833 79.9 87.45C79.9667 87.4333 80.0333 87.4167 80.1 87.4C80.2333 87.3667 80.3583 87.3333 80.475 87.3C80.5417 87.2833 80.6083 87.2583 80.675 87.225C80.7917 87.1917 80.9167 87.15 81.05 87.1C81.1 87.0833 81.15 87.0667 81.2 87.05C81.3333 87 81.4583 86.95 81.575 86.9C81.625 86.8833 81.675 86.8667 81.725 86.85C81.8583 86.8 81.9833 86.7417 82.1 86.675C82.15 86.6583 82.2 86.6333 82.25 86.6C82.3833 86.55 82.5083 86.4917 82.625 86.425C82.675 86.3917 82.7167 86.3667 82.75 86.35C82.8667 86.2833 82.9833 86.2167 83.1 86.15C83.15 86.1167 83.2 86.0833 83.25 86.05C83.35 85.9833 83.4583 85.9167 83.575 85.85C83.625 85.8 83.6833 85.75 83.75 85.7C83.8333 85.65 83.925 85.5917 84.025 85.525C84.0917 85.4583 84.1667 85.3833 84.25 85.3C84.3167 85.25 84.3833 85.2 84.45 85.15C84.5833 85.0333 84.7167 84.9083 84.85 84.775C85.9 83.725 86.675 82.45 87.175 80.95C87.3083 80.5833 87.425 80.2083 87.525 79.825C87.6583 79.225 87.7583 78.6083 87.825 77.975C87.9083 77.325 87.9417 76.6583 87.925 75.975C87.925 75.525 87.9083 75.0583 87.875 74.575C87.8417 74.0917 87.8 73.6083 87.75 73.125C87.5833 71.875 87.3333 70.5833 87 69.25C86.375 66.825 85.45 64.25 84.25 61.575C83.6167 60.1417 82.8917 58.675 82.075 57.175C81.8917 56.825 81.7 56.475 81.5 56.125C81.2667 55.6917 81.0167 55.25 80.75 54.8C80.2833 54 79.7917 53.1833 79.275 52.35C78.875 51.7167 78.4667 51.0833 78.05 50.45C77.6333 49.8167 77.2 49.1833 76.75 48.55C76.7333 48.5167 76.7167 48.4917 76.7 48.475C76.2667 47.8583 75.825 47.2417 75.375 46.625C75.3083 46.525 75.2333 46.425 75.15 46.325C74.75 45.7917 74.3417 45.25 73.925 44.7C73.675 44.3833 73.425 44.0583 73.175 43.725C72.675 43.0917 72.1583 42.45 71.625 41.8C70.8417 40.8333 70.025 39.875 69.175 38.925C68.6083 38.275 68.0333 37.6333 67.45 37C66.2833 35.7333 65.075 34.475 63.825 33.225C63.4083 32.8083 62.9917 32.3917 62.575 31.975C62.4583 31.875 62.35 31.775 62.25 31.675C61.8333 31.275 61.4167 30.875 61 30.475C60.9833 30.4583 60.975 30.45 60.975 30.45C60.5583 30.0667 60.1417 29.6833 59.725 29.3C59.6083 29.2 59.5 29.1 59.4 29C58.9667 28.6167 58.5417 28.2417 58.125 27.875C58.1083 27.8583 58.0917 27.8417 58.075 27.825C57.6583 27.475 57.25 27.1167 56.85 26.75C56.7333 26.6667 56.6167 26.575 56.5 26.475C56.0833 26.1083 55.6667 25.7583 55.25 25.425C55.2167 25.3917 55.1917 25.3667 55.175 25.35C54.7583 25.0167 54.35 24.6917 53.95 24.375C53.8333 24.275 53.7167 24.1833 53.6 24.1C53.1833 23.7667 52.7667 23.4417 52.35 23.125C52.3167 23.0917 52.2833 23.0583 52.25 23.025C51.85 22.725 50.675 21.85 50.675 21.85C52.75 20.425 54.85 19.1 56.925 17.925C57.425 18.325 57.9167 18.7167 58.4 19.1C58.5167 19.2 58.625 19.2917 58.725 19.375C59.1417 19.725 59.5583 20.075 59.975 20.425C60.1083 20.525 60.2333 20.625 60.35 20.725C60.85 21.1417 61.35 21.575 61.85 22.025C61.95 22.0917 62.0417 22.1667 62.125 22.25C62.5583 22.6167 62.9833 22.9917 63.4 23.375C63.5333 23.4917 63.6667 23.6083 63.8 23.725C64.2833 24.175 64.775 24.6333 65.275 25.1C65.3417 25.15 65.4 25.2 65.45 25.25C65.9 25.6833 66.35 26.1083 66.8 26.525C66.9167 26.6583 67.0417 26.7917 67.175 26.925C67.675 27.3917 68.1667 27.875 68.65 28.375C68.6667 28.375 68.675 28.375 68.675 28.375C70.95 30.65 73.1 32.95 75.125 35.3C75.4583 35.6833 75.7917 36.0667 76.125 36.45C76.7917 37.2333 77.4417 38.0167 78.075 38.8C78.4083 39.2333 78.7417 39.6583 79.075 40.075C79.3583 40.4417 79.6417 40.8 79.925 41.15C80.1917 41.5 80.4583 41.85 80.725 42.2C81.0417 42.6333 81.3667 43.075 81.7 43.525C82.9167 45.1917 84.075 46.8667 85.175 48.55C85.675 49.3167 86.1583 50.0833 86.625 50.85C88.25 53.475 89.675 56.1 90.925 58.65C91.3083 59.4 91.6667 60.15 92 60.9C92.8333 62.7667 93.5667 64.6 94.2 66.4C94.45 67.1167 94.6833 67.825 94.9 68.525C95.1167 69.2417 95.3167 69.9417 95.5 70.625C95.8667 72.0083 96.1583 73.35 96.375 74.65C96.475 75.3 96.5667 75.9417 96.65 76.575C96.85 78.475 96.9 80.3 96.775 82V82Z" fill="url(#paint0_linear_3_64)"/>
<path fill-rule="evenodd" clip-rule="evenodd" d="M75.025 50.6C76.475 52.725 77.8 54.85 78.975 56.925C75.875 60.9 72.4 64.825 68.575 68.625C68.575 68.625 68.575 68.6333 68.575 68.65C68.075 69.1333 67.5833 69.6167 67.1 70.1C66.9667 70.2167 66.8333 70.3417 66.7 70.475C66.25 70.9083 65.8 71.3333 65.35 71.75C65.3 71.8 65.25 71.85 65.2 71.9C64.7 72.3667 64.2 72.825 63.7 73.275C63.5667 73.3917 63.4333 73.5083 63.3 73.625C62.8833 74.0083 62.4667 74.3833 62.05 74.75C61.95 74.8333 61.8583 74.9167 61.775 75C61.275 75.4333 60.775 75.8583 60.275 76.275C60.1417 76.3917 60.0167 76.5 59.9 76.6C59.4833 76.95 59.0667 77.2917 58.65 77.625C58.5333 77.725 58.4167 77.8167 58.3 77.9C57.8167 78.2833 57.3417 78.6667 56.875 79.05C56.8417 79.0667 56.8167 79.0833 56.8 79.1C56.6833 79.2 56.5667 79.2917 56.45 79.375C56.0333 79.6917 55.625 80.0083 55.225 80.325C55.0917 80.425 54.9583 80.525 54.825 80.625C54.7917 80.6417 54.7583 80.6667 54.725 80.7C54.6583 80.65 54.6583 80.65 54.725 80.7C54.2583 81.05 53.7917 81.3917 53.325 81.725C53.225 81.8083 53.125 81.8833 53.025 81.95C52.6083 82.25 52.1917 82.55 51.775 82.85C51.625 82.95 51.4833 83.05 51.35 83.15C50.85 83.5 50.35 83.8417 49.85 84.175C49.7833 84.225 49.7167 84.275 49.65 84.325C49.2333 84.5917 48.8167 84.8667 48.4 85.15C47.9667 84.8667 47.9667 84.8667 48.4 85.15C48.3667 85.1667 48.3417 85.1833 48.325 85.2C48.175 85.2833 48.0333 85.375 47.9 85.475C47.4 85.7917 46.9083 86.1 46.425 86.4C46.3917 86.4167 46.3583 86.4333 46.325 86.45C46.2583 86.5 46.1833 86.55 46.1 86.6C45.6833 86.85 45.275 87.0917 44.875 87.325C44.7417 87.4083 44.6 87.4917 44.45 87.575C44.0167 87.8417 43.575 88.1 43.125 88.35C43.0583 88.3833 43 88.4167 42.95 88.45C42.45 88.7333 41.9583 89.0083 41.475 89.275C41.325 89.3417 41.1833 89.4167 41.05 89.5C40.65 89.7167 40.2417 89.925 39.825 90.125C39.725 90.175 39.6333 90.225 39.55 90.275C39.0667 90.525 38.5833 90.7667 38.1 91C37.9667 91.0667 37.8417 91.125 37.725 91.175C37.325 91.375 36.925 91.5667 36.525 91.75C36.425 91.8 36.3167 91.85 36.2 91.9C35.7167 92.1167 35.2417 92.325 34.775 92.525C34.6583 92.575 34.55 92.625 34.45 92.675C34.05 92.825 33.6583 92.9833 33.275 93.15C33.1583 93.2 33.0417 93.2417 32.925 93.275C32.4583 93.4583 31.9917 93.6417 31.525 93.825C31.4417 93.8583 31.35 93.8917 31.25 93.925C30.8667 94.0583 30.4833 94.1917 30.1 94.325C29.9833 94.375 29.8583 94.4167 29.725 94.45C29.275 94.6 28.825 94.75 28.375 94.9C28.3083 94.9167 28.25 94.9333 28.2 94.95C27.8 95.0667 27.4 95.1833 27 95.3C26.8667 95.3333 26.7417 95.3667 26.625 95.4C26.175 95.5167 25.7333 95.625 25.3 95.725C25.2833 95.725 25.275 95.725 25.275 95.725C24.8417 95.8417 24.4083 95.9417 23.975 96.025C23.8583 96.0417 23.75 96.0667 23.65 96.1C23.25 96.1667 22.8583 96.2333 22.475 96.3C22.4417 96.3167 22.4 96.325 22.35 96.325C21.9167 96.3917 21.5 96.4583 21.1 96.525C20.9833 96.5417 20.875 96.55 20.775 96.55C20.425 96.6 20.075 96.6417 19.725 96.675C19.6583 96.675 19.5833 96.6833 19.5 96.7C19.1 96.7333 18.7083 96.7583 18.325 96.775C18.225 96.775 18.125 96.775 18.025 96.775C17.7083 96.7917 17.3917 96.8 17.075 96.8C16.975 96.8 16.8833 96.8 16.8 96.8C16.6167 96.8 16.4333 96.8 16.25 96.8C16.1333 96.8 16.0083 96.8 15.875 96.8C15.675 96.7833 15.475 96.7667 15.275 96.75C15.175 96.75 15.0833 96.75 15 96.75C14.7 96.7167 14.4083 96.6833 14.125 96.65C14.1083 96.65 14.0917 96.65 14.075 96.65C13.8083 96.6167 13.5333 96.5833 13.25 96.55C13.1667 96.5333 13.0833 96.5167 13 96.5C12.8 96.4667 12.6083 96.4333 12.425 96.4C12.325 96.3833 12.225 96.3583 12.125 96.325C11.9417 96.2917 11.7667 96.2583 11.6 96.225C11.5 96.1917 11.3917 96.1667 11.275 96.15C11.125 96.1 10.975 96.0583 10.825 96.025C10.7083 95.9917 10.6 95.9583 10.5 95.925C10.35 95.875 10.2 95.825 10.05 95.775C9.93333 95.7417 9.825 95.7 9.725 95.65C9.575 95.6 9.43333 95.55 9.3 95.5C9.2 95.45 9.09167 95.4083 8.975 95.375C8.84167 95.3083 8.70833 95.2417 8.575 95.175C8.475 95.1417 8.375 95.1 8.275 95.05C8.14166 94.9833 8.00833 94.9167 7.875 94.85C7.775 94.8 7.675 94.7417 7.575 94.675C7.44166 94.6083 7.31666 94.5417 7.2 94.475C7.1 94.4083 7.00833 94.35 6.925 94.3C6.79167 94.2167 6.66667 94.1333 6.55 94.05C6.45 93.9833 6.35833 93.925 6.275 93.875C6.15833 93.775 6.03333 93.6833 5.9 93.6C5.81667 93.5333 5.74167 93.475 5.675 93.425C5.54167 93.3083 5.40833 93.1917 5.275 93.075C5.20833 93.025 5.14166 92.975 5.075 92.925C4.89166 92.7583 4.70833 92.5833 4.525 92.4C2.95 90.825 1.825 88.925 1.1 86.725C0.933331 86.2417 0.791664 85.7417 0.674998 85.225C0.558331 84.7083 0.458331 84.175 0.374998 83.625C0.291664 83.0917 0.224998 82.5417 0.174998 81.975C0.141664 81.4083 0.124998 80.825 0.124998 80.225C0.108331 79.0417 0.174998 77.8167 0.324998 76.55C0.391664 75.9167 0.474998 75.275 0.574998 74.625C0.641664 74.2917 0.708331 73.9667 0.774998 73.65C0.958331 72.65 1.18333 71.6333 1.45 70.6C2.175 67.85 3.2 64.975 4.475 62C4.79166 61.25 5.125 60.5 5.475 59.75C6.00833 58.6167 6.575 57.4833 7.175 56.35C8.14167 54.5333 9.19166 52.7 10.325 50.85C11.7417 52.9667 13.25 55.075 14.85 57.175C11.25 63.9 9.225 70.15 9.05 75.25C9.03333 75.4833 9.025 75.7167 9.025 75.95C9.025 76.6333 9.05833 77.3 9.125 77.95C9.19166 78.5833 9.3 79.2 9.45 79.8C9.53333 80.1833 9.64166 80.5583 9.775 80.925C10.3 82.4 11.075 83.7 12.125 84.75C12.2583 84.8833 12.3917 85.0083 12.525 85.125C12.5583 85.1583 12.6 85.1917 12.65 85.225C12.75 85.3083 12.85 85.3917 12.95 85.475C13 85.525 13.05 85.5667 13.1 85.6C13.2 85.6667 13.3 85.7417 13.4 85.825C13.45 85.8583 13.5083 85.8917 13.575 85.925C13.675 85.9917 13.775 86.0583 13.875 86.125C13.925 86.1583 13.9833 86.1917 14.05 86.225C14.15 86.2917 14.25 86.35 14.35 86.4C14.4167 86.4333 14.4833 86.4667 14.55 86.5C14.65 86.55 14.75 86.6 14.85 86.65C14.9167 86.6833 14.9917 86.7167 15.075 86.75C15.175 86.8 15.275 86.8417 15.375 86.875C15.4583 86.9083 15.5333 86.9417 15.6 86.975C15.7167 87.0083 15.825 87.0417 15.925 87.075C16.0083 87.1083 16.0833 87.1333 16.15 87.15C16.2667 87.2 16.375 87.2417 16.475 87.275C16.5583 87.2917 16.6417 87.3083 16.725 87.325C16.8417 87.3583 16.9583 87.3917 17.075 87.425C17.1583 87.4417 17.2417 87.4583 17.325 87.475C17.4417 87.5083 17.55 87.5333 17.65 87.55C17.75 87.5667 17.8417 87.5833 17.925 87.6C18.0417 87.6167 18.1583 87.6333 18.275 87.65C18.375 87.6667 18.475 87.6833 18.575 87.7C18.675 87.7167 18.7833 87.725 18.9 87.725C19 87.7417 19.1 87.7583 19.2 87.775C19.3167 87.775 19.4333 87.7833 19.55 87.8C19.65 87.8 19.7583 87.8 19.875 87.8C19.9917 87.8167 20.1 87.825 20.2 87.825C20.3167 87.825 20.425 87.825 20.525 87.825C20.6417 87.8417 20.75 87.85 20.85 87.85C20.8667 87.85 20.875 87.85 20.875 87.85C21.175 87.85 21.4833 87.8417 21.8 87.825C21.8833 87.8083 21.9667 87.8 22.05 87.8C22.3333 87.7833 22.625 87.7667 22.925 87.75C22.9417 87.7333 22.9667 87.725 23 87.725C23.3333 87.6917 23.6667 87.6583 24 87.625C24.0667 87.6083 24.1417 87.5917 24.225 87.575C24.5417 87.5417 24.8583 87.4917 25.175 87.425C25.2083 87.425 25.2333 87.425 25.25 87.425C25.6 87.3583 25.95 87.2833 26.3 87.2C26.3833 87.1833 26.4667 87.1667 26.55 87.15C26.8667 87.0833 27.1917 87.0083 27.525 86.925C27.5583 86.9083 27.5917 86.9 27.625 86.9C27.975 86.8167 28.3333 86.7167 28.7 86.6C28.7833 86.5833 28.875 86.5583 28.975 86.525C29.3083 86.425 29.65 86.325 30 86.225C30.0333 86.2083 30.0667 86.1917 30.1 86.175C30.4667 86.0583 30.8333 85.9333 31.2 85.8C31.3 85.7667 31.4 85.7333 31.5 85.7C31.85 85.5833 32.2 85.45 32.55 85.3C32.5833 85.3 32.6167 85.2917 32.65 85.275C33.0333 85.125 33.4167 84.9667 33.8 84.8C33.9 84.7667 34 84.7333 34.1 84.7C34.4667 84.5333 34.8333 84.3667 35.2 84.2C35.2333 84.2 35.2583 84.1917 35.275 84.175C35.675 83.9917 36.075 83.8083 36.475 83.625C36.575 83.575 36.675 83.525 36.775 83.475C37.1583 83.3083 37.5417 83.125 37.925 82.925C37.9417 82.9083 37.9667 82.9 38 82.9C38.4 82.6833 38.8 82.4667 39.2 82.25C39.3 82.2 39.4083 82.15 39.525 82.1C39.575 82.0667 39.625 82.0333 39.675 82C40.0083 81.8333 40.35 81.65 40.7 81.45C40.7167 81.45 40.7333 81.4417 40.75 81.425C41.1667 81.1917 41.5833 80.9583 42 80.725C42.0167 80.7083 42.0333 80.7 42.05 80.7C42.5333 81.05 42.5333 81.05 42.05 80.7C42.1333 80.65 42.2167 80.5917 42.3 80.525C42.7 80.2917 43.1 80.0583 43.5 79.825C43.5333 79.8083 43.5583 79.7917 43.575 79.775C43.9917 79.525 44.4083 79.2667 44.825 79C44.9417 78.9333 45.05 78.8667 45.15 78.8C45.55 78.5333 45.9583 78.2667 46.375 78C46.3917 77.9833 46.4083 77.975 46.425 77.975C46.8417 77.6917 47.2667 77.4 47.7 77.1C47.8 77.0333 47.9 76.9667 48 76.9C48.1333 76.8 48.2667 76.7083 48.4 76.625C48.5333 76.725 48.5333 76.725 48.4 76.625C48.6833 76.425 48.9667 76.225 49.25 76.025C49.2667 76.0083 49.2833 75.9917 49.3 75.975C49.7167 75.6917 50.125 75.4 50.525 75.1C50.5417 75.0833 50.5583 75.0667 50.575 75.05C50.6917 74.9667 50.8 74.8917 50.9 74.825C51.3167 74.5083 51.7333 74.1917 52.15 73.875C52.1667 73.8583 52.175 73.85 52.175 73.85C52.6083 73.5167 53.0417 73.1833 53.475 72.85C53.575 72.7667 53.6833 72.675 53.8 72.575C54.2167 72.2417 54.6333 71.9083 55.05 71.575C55.0667 71.5583 55.075 71.55 55.075 71.55C55.5083 71.2 55.9417 70.8417 56.375 70.475C56.475 70.375 56.575 70.2833 56.675 70.2C57.1083 69.8333 57.5333 69.4667 57.95 69.1C57.95 69.1 57.9583 69.0917 57.975 69.075C58.3917 68.7083 58.8167 68.3333 59.25 67.95C59.35 67.85 59.4583 67.75 59.575 67.65C59.9917 67.2667 60.4083 66.8833 60.825 66.5C60.825 66.4833 60.825 66.475 60.825 66.475C61.2583 66.075 61.6833 65.675 62.1 65.275C62.2 65.175 62.3083 65.075 62.425 64.975C62.8417 64.5583 63.2583 64.1417 63.675 63.725C65.2083 62.1917 66.6833 60.6417 68.1 59.075C68.15 59.0083 68.2083 58.9417 68.275 58.875C68.8083 58.275 69.3333 57.675 69.85 57.075C70.3667 56.4917 70.8667 55.9 71.35 55.3C71.7167 54.8667 72.075 54.425 72.425 53.975C72.8917 53.4083 73.3417 52.8333 73.775 52.25C74.175 51.75 75 50.65 75.025 50.6V50.6ZM96.425 21.375C96.15 23.325 95.725 25.325 95.125 27.425C94.9583 28.0417 94.7667 28.6583 94.55 29.275C94.4833 29.4917 94.4167 29.7 94.35 29.9C92.625 35.075 89.975 40.6 86.475 46.25C85.0583 44.1 83.5333 41.9667 81.9 39.85C88.35 27.85 89.825 17.3 84.7 12.175C84.5667 12.0417 84.4333 11.9167 84.3 11.8C84.2667 11.7667 84.2333 11.7333 84.2 11.7C84.0833 11.6167 83.9667 11.525 83.85 11.425C83.8167 11.3917 83.775 11.3583 83.725 11.325C83.625 11.2583 83.525 11.1833 83.425 11.1C83.3583 11.0667 83.3 11.0333 83.25 11C83.15 10.9333 83.05 10.8667 82.95 10.8C82.8833 10.7667 82.825 10.7333 82.775 10.7C82.675 10.6333 82.5667 10.575 82.45 10.525C82.4 10.4917 82.3417 10.4583 82.275 10.425C82.175 10.375 82.0667 10.325 81.95 10.275C81.8833 10.2417 81.8167 10.2083 81.75 10.175C81.65 10.125 81.5417 10.0833 81.425 10.05C81.3583 10.0167 81.2917 9.98334 81.225 9.95C81.1083 9.91667 81 9.875 80.9 9.825C80.8167 9.80834 80.7417 9.79167 80.675 9.775C80.5583 9.725 80.4417 9.68334 80.325 9.65C80.2417 9.63334 80.1667 9.61667 80.1 9.6C79.9833 9.56667 79.8667 9.53334 79.75 9.5C79.6667 9.48334 79.5833 9.46667 79.5 9.45C79.3833 9.41667 79.2667 9.39167 79.15 9.375C79.0667 9.35834 78.975 9.34167 78.875 9.325C78.775 9.30834 78.6667 9.29167 78.55 9.275C78.45 9.25834 78.35 9.24167 78.25 9.225C78.1333 9.20834 78.0167 9.19167 77.9 9.175C77.8167 9.175 77.725 9.16667 77.625 9.15C77.5083 9.15 77.3833 9.14167 77.25 9.125C77.15 9.125 77.05 9.11667 76.95 9.1C76.8333 9.1 76.7167 9.1 76.6 9.1C76.5 9.08334 76.3917 9.075 76.275 9.075C76.175 9.075 76.0667 9.075 75.95 9.075C75.95 9.075 75.9417 9.075 75.925 9.075C75.625 9.075 75.3167 9.08334 75 9.1C74.9333 9.1 74.8583 9.10834 74.775 9.125C74.4917 9.14167 74.2 9.15834 73.9 9.175C73.8667 9.175 73.8333 9.18334 73.8 9.2C73.4833 9.21667 73.1583 9.25 72.825 9.3C72.7417 9.31667 72.6583 9.33334 72.575 9.35C72.275 9.38334 71.9667 9.43334 71.65 9.5C71.6167 9.5 71.5833 9.5 71.55 9.5C71.2167 9.56667 70.875 9.63334 70.525 9.7C70.4417 9.71667 70.3583 9.74167 70.275 9.775C69.9417 9.84167 69.6083 9.91667 69.275 10C69.2417 10 69.2167 10.0083 69.2 10.025C68.8333 10.1083 68.4667 10.2083 68.1 10.325C68.0167 10.3417 67.9333 10.3667 67.85 10.4C67.5 10.5 67.15 10.6083 66.8 10.725C66.7667 10.725 66.7417 10.725 66.725 10.725C66.3583 10.8583 65.9833 10.9917 65.6 11.125C65.5 11.1583 65.4083 11.1917 65.325 11.225C64.9583 11.3417 64.5917 11.475 64.225 11.625C64.2083 11.625 64.1917 11.6333 64.175 11.65C63.7917 11.8 63.4 11.9583 63 12.125C62.9167 12.1583 62.825 12.1917 62.725 12.225C62.3417 12.3917 61.9583 12.5583 61.575 12.725C61.5583 12.725 61.5417 12.7333 61.525 12.75C61.125 12.9167 60.725 13.1 60.325 13.3C60.2417 13.35 60.15 13.3917 60.05 13.425C59.6667 13.6083 59.275 13.8 58.875 14C58.8583 14.0167 58.8417 14.025 58.825 14.025C58.4083 14.2417 58 14.4583 57.6 14.675C57.5 14.725 57.4 14.775 57.3 14.825C57.2 14.875 57.1083 14.925 57.025 14.975C56.7083 15.1417 56.4 15.3083 56.1 15.475C56.0833 15.475 56.0667 15.4833 56.05 15.5C55.6333 15.7333 55.2167 15.9667 54.8 16.2C54.75 16.2333 54.7 16.2667 54.65 16.3C54.675 16.275 54.625 16.3 54.65 16.3C54.6 16.3333 54.55 16.3583 54.5 16.375C54.1 16.625 53.6917 16.875 53.275 17.125C53.275 17.125 53.2667 17.125 53.25 17.125C52.8167 17.3917 52.3917 17.6583 51.975 17.925C51.875 17.9917 51.775 18.0583 51.675 18.125C51.2583 18.3917 50.8417 18.6583 50.425 18.925C50.4083 18.9417 50.4 18.95 50.4 18.95C49.9667 19.2333 49.5417 19.525 49.125 19.825C49.0083 19.8917 48.9 19.9583 48.8 20.025C48.6667 20.125 48.5333 20.225 48.4 20.325H48.375C48.1083 20.5083 47.8333 20.7 47.55 20.9C47.5333 20.9167 47.525 20.925 47.525 20.925C47.0917 21.225 46.6667 21.5333 46.25 21.85C46.25 21.85 46.2417 21.8583 46.225 21.875C46.125 21.9417 46.025 22.0167 45.925 22.1C45.4917 22.4167 45.0667 22.7333 44.65 23.05C44.65 23.0667 44.6417 23.075 44.625 23.075C44.1917 23.4083 43.7583 23.7417 43.325 24.075C43.225 24.1583 43.125 24.2417 43.025 24.325C42.5917 24.675 42.1667 25.025 41.75 25.375C41.75 25.375 41.7417 25.375 41.725 25.375C41.3083 25.725 40.8833 26.0833 40.45 26.45C40.35 26.55 40.2417 26.6417 40.125 26.725C39.7083 27.0917 39.2833 27.4583 38.85 27.825C38.4167 28.2083 37.9917 28.5917 37.575 28.975C37.4583 29.075 37.35 29.175 37.25 29.275C36.8333 29.6583 36.4083 30.0417 35.975 30.425C35.975 30.425 35.975 30.4333 35.975 30.45C35.5583 30.8333 35.1333 31.2333 34.7 31.65C34.6 31.75 34.5 31.85 34.4 31.95C33.9833 32.3667 33.5583 32.7833 33.125 33.2C31.875 34.45 30.6667 35.7083 29.5 36.975C28.9167 37.6083 28.3417 38.25 27.775 38.9C26.9417 39.85 26.125 40.8083 25.325 41.775C24.5417 42.7417 23.775 43.7083 23.025 44.675C22.6083 45.225 22.1917 45.775 21.775 46.325C20.35 44.225 19.025 42.15 17.85 40.075C20.975 36.125 24.475 32.175 28.3 28.35C28.7833 27.85 29.275 27.3583 29.775 26.875C29.9083 26.7583 30.0417 26.6417 30.175 26.525C30.6083 26.0917 31.05 25.6583 31.5 25.225C31.5667 25.175 31.625 25.125 31.675 25.075C32.175 24.6083 32.675 24.15 33.175 23.7C33.3083 23.5833 33.4333 23.4667 33.55 23.35C33.9833 22.9667 34.4083 22.5917 34.825 22.225C34.925 22.1417 35.0167 22.0667 35.1 22C35.6 21.5667 36.1 21.1333 36.6 20.7C36.7333 20.6 36.8583 20.5 36.975 20.4C37.3917 20.05 37.8083 19.7 38.225 19.35C38.3417 19.2667 38.45 19.175 38.55 19.075C39.0333 18.6917 39.5167 18.3167 40 17.95C40.0167 17.9167 40.0417 17.8917 40.075 17.875C40.175 17.7917 40.2833 17.7083 40.4 17.625C40.8167 17.2917 41.2333 16.9667 41.65 16.65C41.7833 16.55 41.9083 16.4583 42.025 16.375C42.0583 16.3417 42.0917 16.3167 42.125 16.3C42.5917 15.95 43.0667 15.6 43.55 15.25C43.6333 15.1833 43.725 15.1167 43.825 15.05C44.2583 14.7333 44.6833 14.425 45.1 14.125C45.2333 14.025 45.3667 13.9333 45.5 13.85C46.0167 13.5 46.525 13.15 47.025 12.8C47.0917 12.7667 47.1583 12.725 47.225 12.675C47.6083 12.4083 48 12.15 48.4 11.9C48.45 11.8667 48.5 11.8333 48.55 11.8C48.7 11.7 48.8417 11.6083 48.975 11.525C49.475 11.2083 49.975 10.8917 50.475 10.575C50.4917 10.5583 50.5083 10.55 50.525 10.55C50.575 10.5167 50.625 10.4833 50.675 10.45C51.125 10.1833 51.5667 9.91667 52 9.65C52.1333 9.56667 52.2667 9.48334 52.4 9.4C52.85 9.13334 53.2917 8.875 53.725 8.625C53.7917 8.59167 53.8583 8.55834 53.925 8.525C54.425 8.24167 54.9167 7.96667 55.4 7.7C55.5333 7.63334 55.6667 7.56667 55.8 7.5C56.2167 7.28334 56.6333 7.06667 57.05 6.85C57.1333 6.8 57.225 6.75 57.325 6.7C57.8083 6.45 58.2917 6.20834 58.775 5.975C58.9083 5.925 59.0333 5.86667 59.15 5.8C59.55 5.61667 59.9417 5.43334 60.325 5.25C60.4417 5.2 60.5583 5.15 60.675 5.1C61.1417 4.88334 61.6167 4.675 62.1 4.475C62.2 4.425 62.3083 4.375 62.425 4.325C62.8083 4.15834 63.1917 4 63.575 3.85C63.7083 3.8 63.8333 3.75 63.95 3.7C64.4167 3.51667 64.8833 3.34167 65.35 3.175C65.4333 3.14167 65.5167 3.10834 65.6 3.075C66 2.925 66.3917 2.78334 66.775 2.65C66.8917 2.61667 67.0167 2.575 67.15 2.525C67.6 2.375 68.05 2.23334 68.5 2.1C68.5667 2.08334 68.625 2.06667 68.675 2.05C69.075 1.91667 69.475 1.8 69.875 1.7C69.9917 1.66667 70.1083 1.63334 70.225 1.6C70.675 1.48334 71.125 1.36667 71.575 1.25C71.575 1.25 71.5833 1.25 71.6 1.25C72.0333 1.15 72.4583 1.05834 72.875 0.975003C72.9917 0.94167 73.1083 0.91667 73.225 0.900003C73.6083 0.81667 73.9917 0.74167 74.375 0.675003C74.425 0.675003 74.475 0.66667 74.525 0.650003C74.9417 0.583336 75.3583 0.525003 75.775 0.475003C75.8917 0.458336 76 0.44167 76.1 0.425003C76.45 0.375003 76.8 0.34167 77.15 0.325003C77.2167 0.308336 77.2833 0.300003 77.35 0.300003C77.75 0.26667 78.15 0.233336 78.55 0.200003C78.65 0.200003 78.7417 0.200003 78.825 0.200003C79.1583 0.183336 79.4833 0.175003 79.8 0.175003C79.8833 0.175003 79.975 0.175003 80.075 0.175003C80.2583 0.175003 80.4417 0.175003 80.625 0.175003C80.7417 0.19167 80.8583 0.200003 80.975 0.200003C81.1917 0.200003 81.4 0.208336 81.6 0.225003C81.6833 0.225003 81.775 0.233336 81.875 0.250003C82.175 0.26667 82.4667 0.29167 82.75 0.325003C82.75 0.325003 82.7583 0.325003 82.775 0.325003C83.0583 0.358336 83.3333 0.400003 83.6 0.450003C83.7 0.450003 83.7917 0.458336 83.875 0.475003C84.0583 0.508336 84.25 0.54167 84.45 0.575003C84.55 0.608336 84.65 0.633336 84.75 0.650003C84.9167 0.683336 85.0833 0.71667 85.25 0.750003C85.3667 0.783336 85.475 0.81667 85.575 0.850003C85.7417 0.883336 85.9 0.925003 86.05 0.975003C86.1667 1.00834 86.275 1.04167 86.375 1.075C86.525 1.125 86.675 1.175 86.825 1.225C86.925 1.25834 87.0333 1.29167 87.15 1.325C87.2833 1.375 87.425 1.43334 87.575 1.5C87.675 1.53334 87.775 1.575 87.875 1.625C88.025 1.675 88.1667 1.73334 88.3 1.8C88.4 1.85 88.5 1.9 88.6 1.95C88.7333 2.01667 88.8667 2.08334 89 2.15C89.1 2.2 89.1917 2.25 89.275 2.3C89.4083 2.36667 89.5417 2.44167 89.675 2.525C89.775 2.575 89.8667 2.63334 89.95 2.7C90.0833 2.76667 90.2083 2.84167 90.325 2.925C90.4083 2.99167 90.5 3.05834 90.6 3.125C90.7167 3.20834 90.8417 3.3 90.975 3.4C91.0417 3.45 91.1167 3.50834 91.2 3.575C91.3333 3.675 91.4667 3.78334 91.6 3.9C91.6667 3.95 91.725 4 91.775 4.05C91.975 4.23334 92.1667 4.40834 92.35 4.575C92.8667 5.10834 93.3417 5.675 93.775 6.275C94.0583 6.65834 94.3167 7.06667 94.55 7.5C94.6667 7.71667 94.7833 7.93334 94.9 8.15C95.35 9.05 95.7167 10 96 11C96.2833 12 96.4833 13.0583 96.6 14.175C96.85 16.4 96.8 18.8 96.425 21.375V21.375Z" fill="url(#paint1_linear_3_64)"/>
<path d="M100.086 128.674C100.086 128.242 100.165 127.849 100.326 127.498C100.486 127.147 100.7 126.848 100.972 126.602C101.242 126.356 101.553 126.166 101.906 126.029C102.259 125.896 102.629 125.829 103.016 125.829C103.402 125.829 103.771 125.896 104.126 126.029C104.479 126.166 104.79 126.356 105.06 126.602C105.329 126.848 105.545 127.147 105.706 127.498C105.865 127.849 105.946 128.242 105.946 128.674C105.946 129.112 105.865 129.504 105.706 129.857C105.545 130.206 105.329 130.508 105.06 130.755C104.79 131.005 104.479 131.197 104.126 131.332C103.771 131.467 103.402 131.534 103.016 131.534C102.629 131.534 102.259 131.467 101.906 131.332C101.553 131.197 101.242 131.005 100.972 130.755C100.7 130.508 100.486 130.206 100.326 129.857C100.165 129.504 100.086 129.112 100.086 128.674ZM100.865 128.674C100.865 128.999 100.921 129.298 101.032 129.574C101.145 129.849 101.297 130.085 101.489 130.287C101.684 130.488 101.912 130.644 102.173 130.755C102.435 130.868 102.715 130.924 103.016 130.924C103.311 130.924 103.589 130.868 103.85 130.755C104.112 130.644 104.34 130.488 104.534 130.287C104.727 130.085 104.881 129.849 104.996 129.574C105.109 129.298 105.167 128.999 105.167 128.674C105.167 128.349 105.109 128.049 104.996 127.776C104.881 127.504 104.727 127.27 104.534 127.072C104.34 126.874 104.112 126.717 103.85 126.606C103.589 126.495 103.311 126.438 103.016 126.438C102.715 126.438 102.435 126.495 102.173 126.606C101.912 126.717 101.684 126.874 101.489 127.072C101.297 127.27 101.145 127.504 101.032 127.776C100.921 128.049 100.865 128.349 100.865 128.674ZM101.88 127.072H103.083C103.486 127.072 103.795 127.143 104.011 127.284C104.227 127.427 104.336 127.671 104.336 128.018C104.336 128.164 104.314 128.291 104.271 128.394C104.227 128.499 104.168 128.585 104.09 128.652C104.015 128.717 103.926 128.767 103.825 128.803C103.724 128.838 103.613 128.862 103.498 128.872L104.352 130.268H103.686L102.909 128.902H102.512V130.268H101.88V127.072ZM102.512 128.406H103.077C103.169 128.406 103.252 128.402 103.329 128.39C103.404 128.38 103.472 128.361 103.527 128.331C103.583 128.299 103.626 128.255 103.656 128.196C103.686 128.139 103.702 128.061 103.702 127.964C103.702 127.877 103.682 127.809 103.64 127.758C103.601 127.708 103.549 127.667 103.486 127.639C103.422 127.613 103.351 127.593 103.272 127.581C103.192 127.571 103.117 127.568 103.046 127.568H102.512V128.406Z" fill="#00005E"/>
<path d="M10.52 111.634C9.32269 111.634 8.35239 111.717 7.60979 111.884C6.86659 112.05 6.28459 112.383 5.86359 112.881C5.44219 113.38 5.15959 114.074 5.01559 114.96C4.87119 115.847 4.79929 117 4.79929 118.419V121.013C4.79929 122.41 4.88249 123.552 5.04879 124.439C5.21509 125.326 5.51429 126.019 5.94689 126.518C6.37919 127.016 6.96639 127.355 7.70949 127.532C8.45219 127.71 9.41079 127.798 10.5865 127.798C10.9856 127.798 11.3897 127.798 11.8004 127.798C12.2105 127.798 12.6652 127.798 13.164 127.798C13.6628 127.798 14.2059 127.793 14.7936 127.781C15.3808 127.77 16.0518 127.754 16.8058 127.731L16.0742 131.556C14.7655 131.6 13.6514 131.623 12.7317 131.623C11.8112 131.623 11.0521 131.623 10.4535 131.623C8.50189 131.623 6.87229 131.435 5.56439 131.057C4.25589 130.68 3.20289 130.076 2.40479 129.245C1.60649 128.413 1.04119 127.321 0.708386 125.969C0.375886 124.617 0.209686 122.954 0.209686 120.98V118.419C0.209686 116.423 0.386987 114.75 0.741887 113.397C1.09609 112.045 1.67819 110.952 2.48789 110.121C3.29699 109.289 4.35049 108.696 5.64759 108.342C6.94449 107.987 8.53519 107.81 10.42 107.81C11.1737 107.81 12.0218 107.81 12.9645 107.81C13.9066 107.81 15.1205 107.832 16.6063 107.876L15.8745 111.701C15.1205 111.679 14.25 111.662 13.2637 111.651C12.277 111.64 11.3624 111.634 10.52 111.634Z" fill="#00005E"/>
<path d="M33.2686 115.226C33.2686 114.473 33.1965 113.863 33.0526 113.397C32.908 112.931 32.6753 112.565 32.3541 112.299C32.0324 112.033 31.6001 111.856 31.057 111.767C30.5133 111.679 29.8431 111.634 29.0448 111.634H24.3554V119.084H29.0448C29.8431 119.084 30.5133 119.034 31.057 118.934C31.6001 118.835 32.0324 118.652 32.3541 118.386C32.6753 118.12 32.908 117.754 33.0526 117.288C33.1965 116.822 33.2686 116.213 33.2686 115.459V115.226ZM28.945 122.809H24.3554V131.556H19.932V107.876H29.1446C32.1156 107.876 34.283 108.414 35.6466 109.489C37.0102 110.565 37.692 112.344 37.692 114.827V115.825C37.692 117.577 37.3149 118.968 36.5614 119.999C35.8072 121.03 34.6874 121.767 33.2021 122.21L38.7564 131.556H33.8342L28.945 122.809Z" fill="#00005E"/>
<path d="M58.2125 107.876L57.4474 111.701H45.8734V117.521H57.2479L56.5161 121.346H45.8734V127.731H58.2457L57.5139 131.556H41.4501V107.876H58.2125Z" fill="#00005E"/>
<path d="M72.0809 117.92C73.1671 118.12 74.0874 118.392 74.8413 118.735C75.5948 119.079 76.1936 119.516 76.6372 120.049C77.0806 120.581 77.4023 121.213 77.6018 121.944C77.8014 122.676 77.9011 123.519 77.9011 124.472V125.004C77.9011 126.135 77.7516 127.111 77.4521 127.931C77.1528 128.752 76.6483 129.439 75.9389 129.993C75.229 130.548 74.2925 130.958 73.1284 131.224C71.9646 131.49 70.5177 131.623 68.7884 131.623C67.9454 131.623 66.8759 131.623 65.5788 131.623C64.2817 131.623 62.5799 131.6 60.4737 131.556L61.172 127.798C62.0587 127.82 62.8516 127.837 63.5499 127.848C64.2485 127.859 64.9022 127.864 65.5123 127.864C66.1219 127.864 66.6929 127.864 67.2252 127.864C67.7573 127.864 68.3004 127.864 68.8549 127.864C69.7859 127.864 70.5453 127.82 71.1331 127.731C71.7202 127.643 72.1858 127.488 72.5299 127.266C72.8735 127.044 73.1063 126.75 73.2282 126.384C73.3499 126.019 73.4112 125.548 73.4112 124.971C73.4112 124.483 73.378 124.068 73.3115 123.724C73.245 123.38 73.1063 123.092 72.8957 122.859C72.6848 122.626 72.3853 122.438 71.9979 122.294C71.6097 122.15 71.0941 122.022 70.4512 121.911L66.4269 121.246C65.2296 121.046 64.2485 120.769 63.4834 120.415C62.7186 120.06 62.1141 119.622 61.671 119.101C61.2271 118.58 60.9227 117.965 60.7562 117.255C60.5899 116.546 60.5069 115.737 60.5069 114.827V114.228C60.5069 113.231 60.6618 112.333 60.9724 111.534C61.2828 110.736 61.7816 110.066 62.4691 109.522C63.156 108.979 64.0598 108.558 65.1798 108.258C66.299 107.959 67.6794 107.81 69.3204 107.81C69.9409 107.81 70.5177 107.81 71.0498 107.81C71.5821 107.81 72.1474 107.81 72.7462 107.81C73.3447 107.81 73.9984 107.815 74.7083 107.826C75.4177 107.838 76.2491 107.854 77.2028 107.876L76.5042 111.634C74.8413 111.59 73.4388 111.568 72.2971 111.568C71.155 111.568 70.0854 111.568 69.0876 111.568C68.2447 111.568 67.5577 111.612 67.0255 111.701C66.4934 111.79 66.072 111.939 65.7618 112.15C65.451 112.361 65.2347 112.644 65.1133 112.998C64.9911 113.353 64.9303 113.796 64.9303 114.328C64.9303 114.794 64.9635 115.182 65.03 115.492C65.0965 115.803 65.2296 116.069 65.4291 116.29C65.6286 116.512 65.9165 116.695 66.2939 116.839C66.6707 116.984 67.1587 117.1 67.7573 117.189L72.0809 117.92Z" fill="#00005E"/>
<path d="M100.251 107.876L99.519 111.701H91.97V131.556H87.546V111.701H79.431L80.1628 107.876H100.251Z" fill="#00005E"/>
<defs>
<linearGradient id="paint0_linear_3_64" x1="3.47501" y1="-1.8" x2="96.775" y2="-1.8" gradientUnits="userSpaceOnUse">
<stop stop-color="#26BDB0"/>
<stop offset="1" stop-color="#21B0E6"/>
</linearGradient>
<linearGradient id="paint1_linear_3_64" x1="0.124998" y1="-1.825" x2="96.65" y2="-1.825" gradientUnits="userSpaceOnUse">
<stop stop-color="#1C2A5A"/>
<stop offset="1" stop-color="#21B0E6"/>
</linearGradient>
</defs>
</svg>
