<svg xmlns="http://www.w3.org/2000/svg" viewBox="0 0 474.8 195.3" xml:space="preserve"><g id="Layer_1"><path d="M193.5 6c14.1 7 27.7 27.3 12.7 53.7-5.2 9.2-22.3 22-53.9 25.8 0 0-6.1 15.5-11.3 22.7-1.7 2.3-21.2 27-49.6 27.8-34.7 1-30.5-16-30.5-16l11.3-5.3s-3.7 15.3 11.3 16c0 0 14.3 3.1 31-14.3 11-11.5 15.7-34 15.7-34s-7.7-1-10.7-7c-.2-.3 5.3-5.3 5.3-5.3s4.3 10.3 7.3 6.7c4-4.9 18.7-56 18.7-56l26-4L153.5 80s25.3 2 34-38.7c0 0 9.9-38.6-24-36C129.2 8 115.1 35.6 111.9 41c-3.7 6.1-3.5 18.1 11.3 5 0 0 8-8 5.7-16.7-.1-.4 7.7-2 7.7-2s.6 15.1-13.3 23.7c-19 11.7-30-8-3.7-33 0 0 17.3-18 44-18 21.6 0 25.9 4 29.9 6z"/><path d="M216.5 109s-9.3 8.1-25.7 7c-13.5-.9-19.5-9.4-19-16.7.7-10 11.4-19.5 19.3-21.5 8.8-2.3 15.6-2.9 23.4.9 8.3 4 9.2 10.6 4 17.3-5.7 7.3-18 8.6-26.3 6.3-3.7-1-.7 10.3 6.7 10 9.7-.3 17.3-8.7 17.3-8.7l.3 5.4zm-22-12.3c2.1 4.1 5.6-.5 5.6-.5s4.1-7.4 4.5-10.3c1-8.6-5.5-4-5.8-2.5-.2 1.5-6.1 9.6-4.3 13.3zM249.2 111.7s-10 9.9-19.7 1.3c-7.7-6.8-5-16.1-3.7-20.2 1.7-5.3 7-11.9 15.4-15.2 15-5.9 19.4 4.4 19.4 4.4l2.3-4.4h18L269.5 108s1.6 3.3 7.3-5.4c.6-1-.2 6-.2 6s-8.1 7-18.8 8c-6.8.7-8.6-4.9-8.6-4.9zm6-25.4s-1.7-7.7-6.9-.2l-6 15c-3.8 10.6 4.9 10.7 7 5 1.8-4.9 3.4-7.7 6.3-16.3l2.5-5.8-2.9 2.3zM276.6 115.7l15-38.7h20.7l-2 6s11.3-7.7 17.8-6.4c2.8.6 8.8 2.7 4.9 15.4-3 9.7.3 6 2.3 4l1.1-1.4 1.5 2.7s-13.3 10.7-23.3 7.7-.3-13-.7-16c-.6-5.1-5.7-1.3-6.7 2.3-.7 2.4-9 24.4-9 24.4h-21.6zM364.2 25l25-3.7-29 80.7s-4.6 9.5 3.7 1.7l7.3-7 1.3 4.7s-20.8 22-33.3 14c-6.7-4.3 2.3-26.3 2.3-26.3L364.2 25zM140.9 123.3l-6 13 241.3-.3 4-13zM380.2 103.6c0-5 4.1-9.2 9.2-9.2 5 0 9.2 4.1 9.2 9.2s-4.1 9.2-9.2 9.2a9.2 9.2 0 0 1-9.2-9.2zm16.6 0c0-4.1-3.3-7.4-7.4-7.4a7.5 7.5 0 0 0-7.5 7.4c0 4.1 3.3 7.5 7.5 7.5 4.1 0 7.4-3.3 7.4-7.5zm-2.9 5h-2.3l-2.2-4.2h-1.9v4.2h-1.9v-9.9h4.8c.8 0 1.9 0 2.7.5.9.6 1.2 1.5 1.2 2.6 0 1.8-.9 2.6-2.7 2.7l2.3 4.1zm-3.5-5.6c1.1 0 1.9-.2 1.9-1.5s-1.4-1.3-2.4-1.3h-2.4v2.8h2.9zM13.6 179.7c0 4.3 2.4 1.4 2.4 3.7v.9H7.1v-.9c0-2.3 2.4.6 2.4-3.7v-29.3H7.3c-7.3 0-3.4 6.1-6.6 6.1H0v-9.2c.8.6 1.8.8 2.7.8h17.8c.8 0 1.9-.2 2.7-.8v9.2h-.8c-3.2 0 .8-6.1-6.6-6.1h-2.2v29.3zM29.8 179.9c0 3.6 2 1.2 2 3.5v.9h-7.9v-.9c0-2.3 2.1.2 2.1-3.5v-27.5c0-3.7-2.1-1.1-2.1-3.5v-.9l5.9-.2v13.7a9 9 0 0 1 6.1-2.7c6 0 6.6 5.4 6.6 7v14.1c0 3.6 2.1 1.1 2.1 3.5v.9h-7.9v-.9c0-2.3 2 .1 2-3.5V167c0-1.7 0-5.7-4-5.7a6.3 6.3 0 0 0-4.9 2.9v15.7zM48.6 171.2c-.2 5.6 2.1 11.5 6.9 11.5 2.5 0 4.3-1.9 5.8-4.3l1.3 1.3c-2 3.6-4.5 5.4-8 5.4-5.9 0-10.2-5.7-10.2-13.4 0-7.3 3.8-12.9 9.5-12.9 5.4 0 8.4 5.6 8.3 12.3H48.6zm9.5-2.5c.2-3.8-1-7.6-4.3-7.6s-4.8 3.8-5.1 7.6h9.4zM75.1 160.9a8.7 8.7 0 0 1 5.6-2.1c5.6 0 9 5.8 9 13s-3.5 13.3-9.3 13.3c-2 0-4.4-1.1-6-2.6l-2.3 2.6h-.8v-32.7c0-3.7-2.1-1.1-2.1-3.5v-.9l5.9-.2v13.1zm0 19.8a5.7 5.7 0 0 0 4.2 2.1c4.8 0 6-6 6-11.1 0-5.2-1.4-10.5-6-10.5-1.5 0-3.1.8-4.2 2.1v17.4zM94.5 171.2c-.2 5.6 2.1 11.5 6.9 11.5 2.5 0 4.3-1.9 5.8-4.3l1.3 1.3c-2 3.6-4.5 5.4-8 5.4-5.9 0-10.2-5.7-10.2-13.4 0-7.3 3.8-12.9 9.5-12.9 5.4 0 8.4 5.6 8.3 12.3H94.5zm9.5-2.5c.2-3.8-1-7.6-4.3-7.6s-4.8 3.8-5.1 7.6h9.4z"/><path d="M108.2 180.2c0-1.7 1.1-2.7 2.3-2.7 1 0 2.3.8 2.3 2.3l-.2 1.3c0 1.8 1.8 1.9 2.8 1.9 2 0 4.5-1.2 4.5-4.2 0-6.5-10.8-3.6-10.8-12.3 0-5.1 4.5-7.5 7.9-7.5 2 0 5.8.9 5.8 4.3 0 1.7-1.1 2.5-2.3 2.5-1 0-2.2-.7-2.2-2.3l.1-1.1c0-1.2-1.4-1.3-2.1-1.3-1.5 0-3.6 1.3-3.6 3.6 0 6.1 11 3.4 11 12.3a8 8 0 0 1-8.2 8.2c-2-.1-7.3-1.2-7.3-5zM123.8 161.3c0-2.2 2.8-.2 2.8-3.9V154c0-1.3.4-1.5 1.3-1.5l2.5-.2v7.5h4.7v2.8h-4.7v15.3c0 2.4.4 4.5 2.6 4.5.9 0 1.3-.2 2.1-.7l.3-.2.8 1.6a7.2 7.2 0 0 1-4.8 2.1c-3.9 0-4.8-3.5-4.8-6.1v-16.6h-2.8v-1.2zM150.3 167.2c.7-3.2 2.5-8.4 5.5-8.4 1.4 0 2.6 1 2.6 2.9 0 1.6-1.1 2.6-2.3 2.6-1 0-1.6-.7-2.1-.7-2.1 0-3.7 7.9-3.7 11.4v4.8c0 4 2.4.8 2.4 3.5v.9h-8.5v-.9c0-2.6 2.3.5 2.3-3.5V164c0-3.9-2.3-.9-2.3-3.5v-.9l6.1-.2v7.8zM161.2 171.2c-.2 5.6 2.1 11.5 6.9 11.5 2.5 0 4.3-1.9 5.8-4.3l1.3 1.3c-2 3.6-4.5 5.4-8 5.4-5.9 0-10.2-5.7-10.2-13.4 0-7.3 3.8-12.9 9.5-12.9 5.4 0 8.4 5.6 8.3 12.3h-13.6zm9.5-2.5c.2-3.8-1-7.6-4.3-7.6s-4.8 3.8-5.1 7.6h9.4zM184.2 160.8c-1.2 0-1.5.8-1.7 2.2-.1 1.7-1 2.8-2.3 2.8-1.1 0-2.1-1-2.1-2.5 0-3.2 4.2-4.4 6-4.4 7.9 0 7.9 8.4 7.9 9.8v8.1c0 1.6-.1 5.6 1.7 5.6.5 0 .8-.3 1.1-.7l.2.3c.1.2.3.5.3.8 0 1-1.7 2.4-3.1 2.4-1.8 0-3.1-1.4-3.6-3.6-1.7 2.4-3.2 3.6-5.7 3.6-3.3 0-6.6-2.5-6.6-7.2 0-7 7.9-8.6 11.8-9.1.1-3.5-.4-8.1-3.9-8.1zm4.1 9.9c-3.2.4-7.7 2.1-7.7 7.3 0 2.6 1.2 4.6 3.3 4.6 1.4 0 4.5-1.2 4.5-7v-4.9z"/><path d="M195.2 180.2c0-1.7 1.1-2.7 2.3-2.7 1 0 2.3.8 2.3 2.3l-.2 1.3c0 1.8 1.8 1.9 2.8 1.9 2 0 4.5-1.2 4.5-4.2 0-6.5-10.8-3.6-10.8-12.3 0-5.1 4.5-7.5 7.9-7.5 2 0 5.8.9 5.8 4.3 0 1.7-1.1 2.5-2.3 2.5-1 0-2.2-.7-2.2-2.3l.1-1.1c0-1.2-1.4-1.3-2.1-1.3-1.5 0-3.6 1.3-3.6 3.6 0 6.1 11 3.4 11 12.3a8 8 0 0 1-8.2 8.2c-2-.1-7.3-1.2-7.3-5zM231.6 171.8c0 7.3-4.1 13.3-9.8 13.3-5.6 0-10.1-5.4-10.1-12.9 0-7.3 4.1-13.3 9.8-13.3 5.7 0 10.1 5.4 10.1 12.9zm-15.5-.1c0 4.9 1 11.5 5.6 11.5 4.5 0 5.5-6.4 5.5-10.9 0-4.9-.9-11.5-5.6-11.5-4.4 0-5.5 6.4-5.5 10.9z"/><path d="m231.1 159.7 5.5-.2v2.6a7.4 7.4 0 0 1 6.1-3.1c4.3 0 6.3 2.6 6.3 7v14.1c0 3.7 2.1 1.1 2.1 3.5v.9H243v-.9c0-2.3 2.1.2 2.1-3.5v-12.6c0-3.3-.3-5.9-4-5.9-1.5 0-3.6 1.3-4.4 3v15.5c0 3.7 2.1 1.1 2.1 3.5v.9h-7.9v-.9c0-2.2 1.9.1 1.9-3.5V164c0-3.5-1.9-1.3-1.9-3.4v-.9zM255.9 161.3c0-2.2 2.8-.2 2.8-3.9V154c0-1.3.4-1.5 1.3-1.5l2.5-.2v7.5h4.7v2.8h-4.7v15.3c0 2.4.4 4.5 2.6 4.5.9 0 1.3-.2 2.1-.7l.3-.2.8 1.6a7.2 7.2 0 0 1-4.8 2.1c-3.9 0-4.8-3.5-4.8-6.1v-16.6h-2.8v-1.2z"/><path d="M286.7 171.8c0 7.3-4.1 13.3-9.8 13.3-5.6 0-10.1-5.4-10.1-12.9 0-7.3 4.1-13.3 9.8-13.3 5.7 0 10.1 5.4 10.1 12.9zm-15.5-.1c0 4.9 1 11.5 5.6 11.5 4.5 0 5.5-6.4 5.5-10.9 0-4.9-.9-11.5-5.6-11.5-4.4 0-5.5 6.4-5.5 10.9zM298.9 190.5c0 3.8 2.3 1 2.3 3.5v.9h-8.3v-.9c0-2.4 2.1.2 2.1-3.5V164c0-1.8-.5-2.1-1-2.2-.5-.2-1-.2-1-1.1v-1l5.6-.2v2.4c1.6-1.8 3.3-3 5.8-3 5.6 0 9 5.8 9 13s-3.5 13.3-9.3 13.3a9.2 9.2 0 0 1-5.3-2.1v7.4zm0-9.8a5.7 5.7 0 0 0 4.2 2.1c4.8 0 6-6 6-11.1 0-5.2-1.4-10.5-6-10.5-1.5 0-3.1.8-4.2 2.1v17.4zM320 179.9c0 3.6 2 1.2 2 3.5v.9h-7.9v-.9c0-2.3 2.1.2 2.1-3.5v-27.5c0-3.7-2.1-1.1-2.1-3.5v-.9l5.9-.2v32.1zM330.8 160.8c-1.2 0-1.5.8-1.7 2.2-.1 1.7-1 2.8-2.3 2.8-1.1 0-2.1-1-2.1-2.5 0-3.2 4.2-4.4 6-4.4 7.9 0 7.9 8.4 7.9 9.8v8.1c0 1.6-.1 5.6 1.7 5.6.5 0 .8-.3 1.1-.7l.2.3c.1.2.3.5.3.8 0 1-1.7 2.4-3.1 2.4-1.8 0-3.1-1.4-3.6-3.6-1.7 2.4-3.2 3.6-5.7 3.6-3.3 0-6.6-2.5-6.6-7.2 0-7 7.9-8.6 11.8-9.1.1-3.5-.4-8.1-3.9-8.1zm4.1 9.9c-3.2.4-7.7 2.1-7.7 7.3 0 2.6 1.2 4.6 3.3 4.6 1.4 0 4.5-1.2 4.5-7v-4.9z"/><path d="M354.6 168.2c.3-1 1.2-3.8 1.2-4.9 0-2.2-2.1-.8-2.1-2.7v-.9h7.1v.9c0 2.2-1.2-.5-2.7 4l-7.4 22.1c-1.5 4.5-3.3 8.6-7.5 8.6-1.3 0-3.2-1-3.2-3.1 0-1.7 1-2.7 2.3-2.7 2.7 0 1.5 2.6 2.7 2.6 2 0 3.7-5.7 4.4-7.7l-7-19.8c-1.6-4.6-3-1.7-3-4v-.9h9v.9c0 2-2.2.7-2.2 2.3 0 .6.4 1.7.6 2.2l4.6 12.9 3.2-9.8zM380.1 152.4c0-3.6-2.1-1.1-2.1-3.5v-.9l5.9-.2v32.1c0 3.5 1.9 1.3 1.9 3.5v.9h-5.6v-2.1a7.5 7.5 0 0 1-5.7 2.8c-5.6 0-9-5.8-9-13s3.5-13.3 9.3-13.3c1.9 0 3.6.9 5.3 2.1v-8.4zm0 10.9a5.7 5.7 0 0 0-4.2-2.1c-4.8 0-6 6-6 11.1 0 5.2 1.4 10.5 6 10.5 1.5 0 3.1-.8 4.2-2.1v-17.4zM393.4 167.2c.7-3.2 2.5-8.4 5.5-8.4 1.4 0 2.6 1 2.6 2.9 0 1.6-1.1 2.6-2.3 2.6-1 0-1.6-.7-2.1-.7-2.1 0-3.7 7.9-3.7 11.4v4.8c0 4 2.4.8 2.4 3.5v.9h-8.5v-.9c0-2.6 2.3.5 2.3-3.5V164c0-3.9-2.3-.9-2.3-3.5v-.9l6.1-.2v7.8zM416.5 164c0-3.7-2.1-1.1-2.1-3.5v-.9l6-.2v20.5c0 3.5 2.1 1.3 2.1 3.4v1h-5.8V182c-1.5 1.8-4 3-6.1 3-4 0-6.4-3-6.4-8.1v-13c0-3.6-2.1-1.1-2.1-3.5v-.9l5.9-.2V177c0 1.8.1 5.4 4.2 5.4 1.9 0 3.1-1.2 4.5-2.7V164zM423.6 159.7l5.6-.2v2.9c1.6-2 3.5-3.5 5.8-3.5 2.2 0 4.3 1 5.4 3.7 1.6-2.1 3.6-3.7 6-3.7 5.8 0 6.2 4.9 6.2 7.3v13.7c0 3.7 2.1 1.1 2.1 3.5v.9h-8v-.9c0-2.3 2.1.2 2.1-3.5v-12.8c0-.7.5-5.8-3.5-5.8-1.4 0-3.5 1.7-4.2 3.3v15.3c0 3.7 2.1 1.1 2.1 3.5v.9h-8v-.9c0-2.3 2.1.2 2.1-3.5v-12.8c0-.7.4-5.8-3.3-5.8-1.6 0-3.5 1.7-4.4 3.3v15.3c0 3.8 2.2 1.1 2.2 3.5v.9h-8.1v-.9c0-2.3 2.1.2 2.1-3.5V164c0-3.5-2.1-1.3-2.1-3.4v-.9z"/><path d="M454.5 180.2c0-1.7 1.1-2.7 2.3-2.7 1 0 2.3.8 2.3 2.3l-.2 1.3c0 1.8 1.8 1.9 2.8 1.9 2 0 4.5-1.2 4.5-4.2 0-6.5-10.8-3.6-10.8-12.3 0-5.1 4.5-7.5 7.9-7.5 2 0 5.8.9 5.8 4.3 0 1.7-1.1 2.5-2.3 2.5-1 0-2.2-.7-2.2-2.3l.1-1.1c0-1.2-1.4-1.3-2.1-1.3-1.5 0-3.6 1.3-3.6 3.6 0 6.1 11 3.4 11 12.3a8 8 0 0 1-8.2 8.2c-2.1-.1-7.3-1.2-7.3-5zM472.4 185.1c-1.3 0-2.4-1.4-2.4-3.1 0-1.7 1.1-3.1 2.4-3.1 1.3 0 2.4 1.4 2.4 3.1 0 1.7-1.1 3.1-2.4 3.1z"/></g></svg>