<svg xmlns="http://www.w3.org/2000/svg" viewBox="0 0 988.9 215.1" xml:space="preserve"><path d="M913.2 145.5c-.4 0-.6-.3-.6-.6v-39c-1.6-27.6-34.4-29.4-34.8-29.5h-33.7c-.4 0-.6-.3-.6-.6v-6c0-.4.3-.6.6-.6h33.7c.3 0 33.2-1.8 34.8-29.5V.7c0-.4.3-.6.6-.6h6c.4 0 .6.3.6.6v39c1.6 27.6 34.4 29.4 34.8 29.5h33.7c.4 0 .6.3.6.6v6c0 .4-.3.6-.6.6h-33.7c-.3 0-33.2 1.8-34.8 29.5v39c0 .4-.3.6-.6.6h-6zM.6 215.1c-.4 0-.6-.3-.6-.6V91c0-.4.3-.6.6-.6h13.5c.4 0 .6.3.6.6v11.1h.9c3.2-5.2 7.8-8.7 13.6-10.4C35 90 45.4 89.2 60 89.2c12.6 0 22.2.5 28.6 1.4 6.4.9 11.7 2.6 15.8 4.9 6.4 3.7 10.8 8.7 13.2 15.1 2.3 6.2 3.5 14.8 3.5 25.7 0 13.8-2.2 24.1-6.5 30.6-4.3 6.6-10.2 11-17.5 13.1-7.3 2.1-20.3 3.2-38.6 3.2-13.4 0-23.1-.8-28.9-2.5-5.8-1.6-10.5-4.9-13.9-9.6h-.9v43.2c0 .4-.3.6-.6.6H.6zm62.8-113.2c-11.8 0-20.7.4-26.4 1.1-5.7.7-10.1 2.1-12.9 3.9-3.5 2.3-6 5.7-7.5 10.1-1.5 4.4-2.3 10.5-2.3 18.2 0 9 .8 16 2.5 20.6 1.7 4.6 4.6 8.1 8.6 10.2 5.4 2.9 16.1 4.4 32.6 4.4 10.9 0 19.2-.4 24.7-1.1 5.5-.7 9.8-2.1 12.6-3.9 3.5-2.3 6.1-5.7 7.6-10.2 1.5-4.5 2.3-10.7 2.3-18.6 0-8.9-.8-15.7-2.5-20.3-1.6-4.5-4.5-7.9-8.6-10.1-5-2.8-15.4-4.3-30.7-4.3zM196.9 183.2c-13.2 0-23.3-.4-30-1.3-6.7-.9-12.2-2.4-16.4-4.7-6.2-3.3-10.7-8.2-13.4-14.5-2.7-6.4-4-15.4-4-26.9 0-12.8 2-22.7 5.8-29.3 3.9-6.8 9.4-11.4 16.3-13.7 6.9-2.3 18.8-3.5 35.2-3.6 14.6 0 25.5.4 32.5 1.3 6.9.9 12.5 2.5 16.4 4.8 5.9 3.5 10.2 8.5 12.8 14.8 2.6 6.4 3.9 15.2 3.9 26.2 0 12.2-1.6 21.6-4.7 27.9-2.3 4.8-5.4 8.6-9.2 11.3-3.8 2.7-8.9 4.7-15.1 5.9-6 1.2-16.1 1.8-30.1 1.8zm-4.1-81.3c-9.7 0-17.2.4-22.1 1.1-5 .7-9 2-11.9 3.9-3.5 2.2-6 5.7-7.6 10.4-1.6 4.7-2.4 11.2-2.4 19.4 0 9.2 1.1 16.3 3.1 20.8 2.1 4.6 5.7 7.9 10.8 9.8 5.6 2.1 16.7 3.2 32.9 3.2 10.6 0 18.5-.4 23.4-1.2 5-.8 9-2.2 11.9-4.4 3.3-2.2 5.6-5.7 7-10.2 1.4-4.5 2.1-10.9 2.1-19 0-9.6-1.1-16.8-3.3-21.3-2.5-5-6.7-8.4-12.4-10.1-5.6-1.5-16.3-2.4-31.5-2.4zM768.4 184.1c-.4 0-.6-.3-.6-.6v-6.9c-3.4 2.2-7.8 3.8-13 4.9-5.7 1.2-15.4 1.8-28.7 1.8-12.6 0-22.2-.4-28.6-1.3-6.4-.9-11.7-2.4-15.7-4.7-5.9-3.3-10.2-8.2-12.8-14.5-2.6-6.4-3.8-15.4-3.8-26.9 0-12.8 1.9-22.7 5.5-29.3 3.7-6.8 9-11.4 15.6-13.7 6.6-2.3 17.9-3.5 33.6-3.6 14 0 24.4.4 31 1.3 6.6.9 11.9 2.5 15.6 4.8l.9.6.3.2v-3.4c0-.4.3-.6.6-.6h13.4c.4 0 .6.3.6.6v90.8c0 .4-.3.6-.6.6h-13.3zm-46.3-82.2c-9.3 0-16.4.4-21.1 1.1-4.7.7-8.6 2-11.4 3.9-3.3 2.2-5.7 5.7-7.2 10.4s-2.3 11.2-2.3 19.4c0 9.2 1 16.3 3 20.8 2 4.6 5.5 7.9 10.3 9.8 5.4 2.1 15.9 3.2 31.5 3.2 10.1 0 17.6-.4 22.4-1.2 4.8-.8 8.6-2.2 11.4-4.4 3.1-2.2 5.4-5.7 6.7-10.2 1.3-4.5 2-10.9 2-19 0-9.6-1.1-16.8-3.2-21.3-2.4-5-6.4-8.4-11.9-10.1-5.4-1.5-15.6-2.4-30.2-2.4zM271.4 182.1c-.4 0-.6-.3-.6-.6V50.8c0-.4.3-.6.6-.6h13.4c.4 0 .6.3.6.6v130.7c0 .4-.3.6-.6.6h-13.4zM368.3 183.2c-15.5 0-27.5-.6-35.5-1.8-8.1-1.2-14.2-3.2-18.3-6-9.4-6.5-14.2-19.7-14.2-39 0-13.5 2-23.8 6-30.6 3.8-6.5 9.3-10.9 16.5-13.2 7.1-2.3 19.2-3.4 35.9-3.4 16 0 27.7.8 34.8 2.5 7.1 1.7 12.9 4.9 17.1 9.7 3.5 4 6 8.7 7.3 13.9 1.3 5.1 2 13.1 2.2 23.5 0 .2-.1.3-.2.5-.1.1-.3.2-.5.2H316.1c.4 11.4 2.7 19.3 6.9 23.5 2.8 2.9 7.4 4.9 13.5 5.9 6.2 1.1 16.3 1.6 30.2 1.6 10.5 0 18.3-.5 23.2-1.5 4.9-1 8.6-2.8 11-5.3 1.7-1.9 2.9-5.1 3.4-9.4 0-.3.3-.6.6-.6h14.2c.2 0 .3.1.5.2.1.1.2.3.2.5-.4 10.5-4.4 18-11.8 22.3-7.6 4.4-21 6.5-39.7 6.5zm-10.1-81.3c-9.5 0-16.9.4-21.9 1.3s-8.9 2.4-11.7 4.6c-4.6 3.5-7.3 10-8.1 19.2h87.1c-.1-8.9-2.5-15.2-7.3-18.8-3.1-2.4-7.6-4-13.2-5-5.6-.8-14-1.3-24.9-1.3zM490.9 183.2c-15.3 0-26.9-.5-34.3-1.4-7.4-.9-12.9-2.5-16.4-4.8-3.5-2.3-6-5.1-7.4-8.4-1.4-3.3-2.1-7.9-2.1-13.7 0-.7 0-2.1.1-4.2 0-.4.3-.6.6-.6H446c.4 0 .6.3.6.6v2c0 5 .5 8.5 1.6 10.6 1.1 2.1 3.2 3.8 6.4 4.9 4.3 1.5 16.3 2.2 36.8 2.2 12.6 0 21.5-.3 26.4-.8 4.9-.5 8.5-1.6 10.7-3.2 2.9-2.2 4.4-5.6 4.4-10.2 0-5.5-1.8-9.3-5.3-11.4-3.5-2-9.5-3-18.5-3h-2.8c-5.3 0-18.5-.2-40.6-.5-6.6-.1-11.9-.6-15.9-1.5-3.9-.9-7.3-2.4-9.9-4.4-5-3.8-7.5-10.3-7.5-19.2 0-9.5 3.1-16.5 9.3-20.8 3.3-2.2 8.7-3.9 16.1-4.9 7.4-1 18.3-1.5 32.2-1.5 15.6 0 27.2.8 34.7 2.5 7.4 1.7 12.9 4.7 16.4 8.9 1.7 2.1 2.8 4.2 3.3 6.5.5 2.2.7 5.9.7 10.9 0 .2-.1.3-.2.5-.1.1-.3.2-.5.2h-14.2c-.4 0-.6-.3-.6-.6-.1-5.3-1.1-8.7-2.8-10.4-2.1-2-5.9-3.4-11.8-4.4-5.8-.9-14.3-1.4-25.4-1.4-20.4 0-32.4 1.4-36.8 4.2-3.1 2.1-4.7 5.6-4.7 10.4 0 5 1.9 8.4 5.5 10 3.3 1.5 9.4 2.2 18.8 2.2h3.5c2.4 0 4.9-.1 7.5-.1 9.7 0 21.5.3 35.3.8 10.6.4 18.3 2.7 23 6.9 4.7 4.2 7 10.9 7 19.9 0 5.5-.8 9.9-2.5 13.3-1.6 3.4-4.3 6.2-8 8.4-3.2 1.9-8.5 3.3-15.7 4.1-7.2 1-17.9 1.4-31.6 1.4z"/><path d="M801.9 182.1c-.4 0-.6-.3-.6-.6V91c0-.4.3-.6.6-.6h12.8c.4 0 .6.3.6.6v11.7h.9c2.2-4.1 5.6-7.4 10.1-9.8 2.7-1.4 6.3-2.4 10.7-2.9 4.4-.5 11.1-.8 19.8-.8 8.7 0 15.3.5 19.6 1.5 4.3 1 8 2.8 11.1 5.5 6 5.3 9 14.1 9 26v8.8c0 .4-.3.6-.6.6h-13.2c-.4 0-.6-.3-.6-.6v-6c0-5.1-.3-9-1-11.6-.7-2.6-1.8-4.8-3.5-6.4-3.6-3.4-10.9-5.1-22.3-5.1-17.2 0-27.9 2.2-32.7 6.8-4.8 4.6-7.2 14.7-7.2 31v41.7c0 .4-.3.6-.6.6h-12.9zM616.5 183.2c-10 0-18-.8-23.6-2.3-5.6-1.5-9.9-4.1-12.6-7.7-2-2.6-3.4-5.7-4.1-9.1-.7-3.4-1.1-8.7-1.1-15.6v-43.2h-22.3c-.4 0-.6-.3-.6-.6V94c0-.4.3-.6.6-.6h22.3V72c0-.4.3-.6.6-.6h13.4c.4 0 .6.3.6.6v21.3h64.6c.4 0 .6.3.6.6v10.7c0 .4-.3.6-.6.6h-64.6v38.5c.1 8.5.4 13.6.7 15.4.3 1.9 1.3 3.7 2.9 5.6 1.8 2.2 4.6 3.7 8.3 4.6 3.7.9 9.1 1.4 16.1 1.4 6.6 0 11.5-.4 14.5-1.3s5.4-2.5 7.1-4.8c1.1-1.6 1.8-3.5 2.2-5.8.1-.3.3-.5.6-.5h13.4c.2 0 .4.1.5.2.1.1.2.3.2.5-.1 1.5-.3 2.8-.6 3.9-.7 3.5-2 6.6-3.9 9.3-2.7 3.8-6.9 6.6-12.3 8.3-5.4 1.9-13.1 2.7-22.9 2.7z"/></svg>