<svg xmlns="http://www.w3.org/2000/svg" width="150" height="40" viewBox="0 0 96 25"><path fill="#4A5C66" d="M25.363 2.82l1.49 4.906c.164.593.37 1.328.49 1.86h.063c.142-.532.305-1.288.448-1.86L29.08 2.82h3.33l-2.33 6.583c-1.43 3.965-2.39 5.56-3.513 6.56a5.73 5.73 0 01-3.003 1.37l-.654-2.638c.388-.06.878-.244 1.35-.53.468-.246.98-.736 1.286-1.246a.815.815 0 00.164-.45c0-.11-.022-.27-.144-.52L21.91 2.82h3.453zm7.79 3.19a67.6 67.6 0 00-.083-3.19h2.615l.143 1.35h.06c.43-.636 1.31-1.575 3.025-1.575 1.285 0 2.307.654 2.736 1.696h.04a4.2 4.2 0 011.28-1.2c.55-.33 1.16-.49 1.9-.49 1.92 0 3.37 1.35 3.37 4.33v5.89h-3.02V7.38c0-1.45-.47-2.29-1.47-2.29-.72 0-1.23.49-1.43 1.084a2.604 2.604 0 00-.13.797v5.85h-3.02v-5.6c0-1.27-.45-2.12-1.43-2.12-.8 0-1.27.61-1.45 1.13-.11.25-.13.53-.13.78v5.83h-3.02V6.01zm22.948.673c0-.757-.32-2.023-1.75-2.023-1.31 0-1.84 1.186-1.92 2.023h3.67zm-3.65 2.125c.11 1.29 1.37 1.9 2.82 1.9 1.07 0 1.92-.14 2.76-.406l.41 2.106c-1.02.408-2.26.632-3.61.632-3.39 0-5.33-1.982-5.33-5.11 0-2.535 1.58-5.335 5.05-5.335 3.22 0 4.45 2.515 4.45 4.988 0 .532-.06 1-.1 1.225h-6.44zm7.83-2.8c0-1.246-.04-2.31-.08-3.188h2.7l.15 1.37h.06c.41-.635 1.44-1.595 3.09-1.595 2.04 0 3.58 1.35 3.58 4.293v5.928h-3.11v-5.54c0-1.288-.45-2.166-1.57-2.166-.85 0-1.36.592-1.57 1.164a2.238 2.238 0 00-.12.777v5.77H60.3V6.01zm14.87 4.477c-.94 0-1.22-.55-1.22-1.757V5.11h2.23V2.82h-2.23V.1l-3.05.84v1.88h-.01v2.29h.01v4.088c0 1.41.29 2.37.86 2.964.49.51 1.33.878 2.33.878.88 0 1.61-.12 2.02-.285l.38-2.445c-.31.062-.89.175-1.32.175"/><path fill="#4A5C66" d="M4.987 8.032c-.9 0-1.613-.633-1.817-1.472a3.036 3.036 0 01-.06-.653v-1.33c0-.245.018-.47.06-.653.204-.84.918-1.472 1.817-1.472 1.293 0 2.078 1.034 2.14 2.614h.003c.002.048.002.097.002.145 0 1.7-.797 2.83-2.145 2.83zm5.283-2.966C10.127 1.668 7.897.06 5.743.06c-1.206 0-2.145.49-2.595 1.144h-.04V.154H0v.81h.003V14.73l3.106-.874V9.28h.04c.44.653 1.38 1.143 2.59 1.143 2.22 0 4.53-1.716 4.53-5.355v-.002h-.01z" mask="url(#b)" transform="translate(0 2.617)"/><path fill="#4A5C66" d="M18.136 8.034v.49c0 .244-.02.47-.06.653-.205.84-.92 1.472-1.818 1.472-1.293 0-2.078-1.04-2.14-2.62h-.003a4.286 4.286 0 01-.003-.15c0-1.7.797-2.82 2.146-2.82.9 0 1.613.63 1.817 1.47.042.18.06.41.06.65v.84zm0-5.266V3.82h-.04c-.45-.654-1.388-1.144-2.594-1.144-2.226 0-4.534 1.717-4.534 5.355v.01h.007c.143 3.4 2.373 5.01 4.527 5.01 1.206 0 2.145-.49 2.594-1.14h.04v.91l3.106.01V2.77h-3.106zm34.156 15.73c-1.18-.45-1.708-.77-1.708-1.478 0-.576.448-1.158 1.45-1.158.892 0 1.546.33 1.857.525l.14.086.52-1.495-.09-.052c-.63-.377-1.52-.6-2.37-.6-1.98 0-3.37 1.187-3.37 2.89 0 1.22.89 2.184 2.58 2.784 1.4.515 1.67.982 1.67 1.613 0 .787-.65 1.275-1.7 1.275-.81 0-1.68-.332-2.182-.66l-.14-.09-.51 1.557.09.052c.71.42 1.7.66 2.71.66 2.215 0 3.646-1.158 3.646-2.95 0-1.392-.76-2.277-2.55-2.96m7.736-2.693c.64 0 1.16.196 1.54.584.61.618.7 1.55.707 1.946h-4.73c.158-.99.83-2.53 2.48-2.53m.138-1.48c-1.35 0-2.5.526-3.33 1.52-.78.937-1.21 2.246-1.21 3.687 0 1.45.44 2.67 1.267 3.53.84.88 2.05 1.35 3.49 1.35 1.546 0 2.586-.32 3.186-.59l.097-.04-.35-1.47-.14.06c-.58.25-1.293.48-2.553.48-1.87 0-3.02-1.12-3.1-3.01h6.594l.02-.19c.02-.18.05-.42.05-.73 0-.51-.08-1.82-.815-2.94-.71-1.08-1.79-1.62-3.2-1.62m10.21 0c-1.485 0-2.51.75-3.05 1.54l-.075-1.21-.007-.112h-1.77l.01.136c.058.72.08 1.48.08 2.54v6.997h1.965v-5.79c0-.29.04-.562.115-.76.25-.83 1.02-1.66 2.17-1.66 1.785 0 2.05 1.664 2.05 2.656v5.56h1.966v-5.77c0-3.94-2.88-4.137-3.45-4.137m8.7 4.175c-1.19-.45-1.71-.77-1.71-1.475 0-.58.45-1.16 1.45-1.16.89 0 1.54.33 1.85.52l.14.08.517-1.5-.09-.05c-.63-.374-1.52-.6-2.374-.6-1.983 0-3.37 1.19-3.37 2.89 0 1.22.89 2.187 2.573 2.787 1.394.514 1.667.98 1.667 1.61 0 .787-.65 1.275-1.7 1.275-.81 0-1.68-.33-2.185-.66l-.14-.09-.51 1.56.09.05c.715.42 1.7.66 2.71.66 2.217 0 3.65-1.154 3.65-2.95 0-1.39-.766-2.273-2.555-2.96m7.73-2.69c.643 0 1.16.2 1.54.588.61.617.697 1.55.706 1.945h-4.73c.157-.99.83-2.53 2.48-2.53m.14-1.48c-1.354 0-2.506.526-3.33 1.52-.78.937-1.21 2.246-1.21 3.687 0 1.442.434 2.662 1.26 3.526.843.88 2.05 1.35 3.493 1.35 1.54 0 2.58-.323 3.18-.595l.09-.045-.35-1.474-.136.06c-.584.247-1.297.476-2.56.476-1.87 0-3.02-1.13-3.1-3.02h6.58l.02-.2c.02-.18.05-.424.05-.73 0-.51-.08-1.823-.81-2.937-.71-1.08-1.79-1.63-3.2-1.63"/><path fill="#119CD8" d="M93.822 21.106c-.95 0-1.613.695-1.613 1.69 0 .978.66 1.69 1.58 1.69.96 0 1.61-.68 1.61-1.69 0-.995-.66-1.69-1.59-1.69"/></svg>