<svg version="1.1" id="Layer_1" xmlns="http://www.w3.org/2000/svg" x="0" y="0" viewBox="0 0 200 200" xml:space="preserve"><style>.st1{fill:#239dff}</style><circle cx="100" cy="100" r="100" opacity=".05" fill="#1ba1e6"/><path class="st1" d="M100 55c-4.1 0-7.5-3.4-7.5-7.5S95.9 40 100 40s7.5 3.4 7.5 7.5-3.4 7.5-7.5 7.5zm0-11.2c-2.1 0-3.8 1.7-3.8 3.8s1.7 3.8 3.8 3.8c2.1 0 3.8-1.7 3.8-3.8s-1.7-3.8-3.8-3.8zM100 160c-4.1 0-7.5-3.4-7.5-7.5s3.4-7.5 7.5-7.5 7.5 3.4 7.5 7.5-3.4 7.5-7.5 7.5zm0-11.2c-2.1 0-3.8 1.7-3.8 3.8s1.7 3.8 3.8 3.8c2.1 0 3.8-1.7 3.8-3.8s-1.7-3.8-3.8-3.8z"/><path class="st1" d="M98.1 53.1h3.8V70h-3.8zM98.1 130h3.8v16.9h-3.8zM152.5 107.5c-4.1 0-7.5-3.4-7.5-7.5s3.4-7.5 7.5-7.5 7.5 3.4 7.5 7.5-3.4 7.5-7.5 7.5zm0-11.3c-2.1 0-3.8 1.7-3.8 3.8s1.7 3.8 3.8 3.8c2.1 0 3.8-1.7 3.8-3.8s-1.7-3.8-3.8-3.8zM47.5 107.5c-4.1 0-7.5-3.4-7.5-7.5s3.4-7.5 7.5-7.5S55 95.9 55 100s-3.4 7.5-7.5 7.5zm0-11.3c-2.1 0-3.8 1.7-3.8 3.8s1.7 3.8 3.8 3.8 3.8-1.7 3.8-3.8-1.7-3.8-3.8-3.8z"/><path class="st1" d="M130 98.1h16.9v3.8H130zM53.1 98.1H70v3.8H53.1z"/><path class="st1" d="M100 141.2c-22.7 0-41.2-18.5-41.2-41.2S77.3 58.8 100 58.8c22.7 0 41.2 18.5 41.2 41.2s-18.5 41.2-41.2 41.2zm0-78.7c-20.7 0-37.5 16.8-37.5 37.5s16.8 37.5 37.5 37.5 37.5-16.8 37.5-37.5-16.8-37.5-37.5-37.5z"/><path class="st1" d="M113.6 152.7l-.9-3.6c17.8-4.6 31.8-18.5 36.4-36.4l3.6.9c-5 19.2-19.9 34.1-39.1 39.1zM149 87.3c-4.6-17.8-18.5-31.8-36.4-36.4l.9-3.6c19.2 4.9 34.1 19.9 39.1 39.1l-3.6.9zM51 87.3l-3.6-.9C52.1 68 66.3 53.3 84.5 47.9l1.1 3.6c-17 5-30.2 18.8-34.6 35.8zM86.4 152.7c-19.2-4.9-34.1-19.9-39.1-39.1l3.6-.9c4.6 17.8 18.5 31.8 36.4 36.4l-.9 3.6zM100 126.2c-14.5 0-26.2-11.8-26.2-26.2S85.5 73.8 100 73.8s26.2 11.8 26.2 26.2-11.7 26.2-26.2 26.2zm0-48.7c-12.4 0-22.5 10.1-22.5 22.5s10.1 22.5 22.5 22.5 22.5-10.1 22.5-22.5-10.1-22.5-22.5-22.5z"/><path transform="rotate(-45.001 132.812 132.815)" class="st1" d="M130.9 118.2h3.7v29.2h-3.7z"/><path transform="rotate(-45.001 67.186 67.187)" class="st1" d="M65.3 52.6H69v29.2h-3.7z"/><path transform="rotate(-45.001 132.812 67.19)" class="st1" d="M118.2 65.3h29.2V69h-29.2z"/><path transform="rotate(-45.001 67.186 132.814)" class="st1" d="M52.6 130.9h29.2v3.7H52.6z"/><path class="st1" d="M100 126.2c-7.3 0-11.2-13.5-11.2-26.2s3.9-26.2 11.2-26.2c7.3 0 11.2 13.5 11.2 26.2s-3.9 26.2-11.2 26.2zm0-48.7c-3.1 0-7.5 8.6-7.5 22.5s4.4 22.5 7.5 22.5c3.1 0 7.5-8.6 7.5-22.5s-4.4-22.5-7.5-22.5z"/><path class="st1" d="M100 111.2c-12.7 0-26.2-3.9-26.2-11.2S87.3 88.8 100 88.8s26.2 3.9 26.2 11.2-13.5 11.2-26.2 11.2zm0-18.7c-13.9 0-22.5 4.4-22.5 7.5s8.6 7.5 22.5 7.5 22.5-4.4 22.5-7.5-8.6-7.5-22.5-7.5z"/></svg>