<svg width="200" height="200" xmlns="http://www.w3.org/2000/svg"><g fill="#1BA1E6" fill-rule="evenodd"><circle fill-rule="nonzero" opacity=".05" cx="100" cy="100" r="100"/><path d="M133.75 126.25c-14.438 0-26.25-11.813-26.25-26.25 0-14.438 11.813-26.25 26.25-26.25C148.188 73.75 160 85.563 160 100c0 14.438-11.813 26.25-26.25 26.25zm0-48.75c-12.375 0-22.5 10.125-22.5 22.5s10.125 22.5 22.5 22.5 22.5-10.125 22.5-22.5-10.125-22.5-22.5-22.5z" fill-rule="nonzero"/><path d="M133.75 160c-5.25 0-9.375-4.125-9.375-9.375V130h3.75v20.625c0 3.188 2.438 5.625 5.625 5.625 3.188 0 5.625-2.438 5.625-5.625V122.5h3.75v28.125c0 5.25-4.125 9.375-9.375 9.375z"/><path d="M131.875 145h3.75v3.75h-3.75zm0-7.5h3.75v3.75h-3.75zm0-7.5h3.75v3.75h-3.75zM130 109.375c-.563 0-.938-.188-1.313-.563l-7.5-7.5 2.626-2.624 6.187 6.187 13.688-13.688 2.625 2.626-15 15c-.375.374-.75.562-1.313.562z"/><path d="M120.625 148.75H40V40h120v37.5h-3.75V43.75H43.75V145h76.875zm39.375 0h-13.125V145h9.375v-22.5H160z"/><path d="M41.875 55h116.25v3.75H41.875zm5.625-7.5h3.75v3.75H47.5zm7.5 0h3.75v3.75H55zm7.5 0h3.75v3.75H62.5z"/><path d="M70 41.875h3.75v15H70zm7.5 5.625h75v3.75h-75zm43.125 93.75H47.5V62.5h105v11.25h-3.75v-7.5h-97.5v71.25h69.375z"/><path d="M85 100H58.75V73.75H85V100zm-22.5-3.75h18.75V77.5H62.5v18.75z" fill-rule="nonzero"/><path d="M103.75 100h-15V73.75H115v3.75H92.5v18.75h11.25zm-45 3.75H85v3.75H58.75zm0 7.5H85V115H58.75zm0 7.5H85v3.75H58.75zm0 7.5H85V130H58.75zm30-22.5h15v3.75h-15zm0 7.5h15V115h-15zm0 7.5h20.625v3.75H88.75zm0 7.5H115V130H88.75z"/></g></svg>
