<?xml version="1.0" encoding="utf-8"?>
<!-- Generator: Adobe Illustrator 25.3.1, SVG Export Plug-In . SVG Version: 6.00 Build 0)  -->
<svg version="1.1" id="Layer_1" xmlns="http://www.w3.org/2000/svg" xmlns:xlink="http://www.w3.org/1999/xlink" x="0px" y="0px"
	 viewBox="0 0 200 200" style="enable-background:new 0 0 200 200;" xml:space="preserve">
<style type="text/css">
	.st0{opacity:5.000000e-02;fill:#1BA1E6;enable-background:new    ;}
	.st1{fill:#1BA1E6;}
</style>
<g>
	<circle class="st0" cx="100" cy="100" r="100"/>
	<g>
		<path class="st1" d="M116.7,101.4c-6.5,0-11.8-5.3-11.8-11.8c0-6.5,5.3-11.8,11.8-11.8c6.5,0,11.8,5.3,11.8,11.8
			C128.5,96.1,123.2,101.4,116.7,101.4z M116.7,81.7c-4.3,0-7.9,3.5-7.9,7.9s3.5,7.9,7.9,7.9c4.3,0,7.9-3.5,7.9-7.9
			S121.1,81.7,116.7,81.7z"/>
		<circle class="st1" cx="116.7" cy="89.6" r="2"/>
		<path class="st1" d="M116.7,140.7c-6.5,0-11.8-5.3-11.8-11.8s5.3-11.8,11.8-11.8c6.5,0,11.8,5.3,11.8,11.8
			S123.2,140.7,116.7,140.7z M116.7,121.1c-4.3,0-7.9,3.5-7.9,7.9s3.5,7.9,7.9,7.9c4.3,0,7.9-3.5,7.9-7.9S121.1,121.1,116.7,121.1z"
			/>
		<circle class="st1" cx="116.7" cy="128.9" r="2"/>
		<path class="st1" d="M77.4,121.1c-6.5,0-11.8-5.3-11.8-11.8c0-6.5,5.3-11.8,11.8-11.8c6.5,0,11.8,5.3,11.8,11.8
			C89.2,115.8,83.9,121.1,77.4,121.1z M77.4,101.4c-4.3,0-7.9,3.5-7.9,7.9c0,4.3,3.5,7.9,7.9,7.9c4.3,0,7.9-3.5,7.9-7.9
			C85.2,104.9,81.7,101.4,77.4,101.4z"/>
		<circle class="st1" cx="77.4" cy="109.3" r="2"/>
		
			<rect x="84.2" y="96.5" transform="matrix(0.9102 -0.4141 0.4141 0.9102 -32.1418 48.612)" class="st1" width="23.8" height="3.9"/>
		
			<rect x="94.1" y="108.2" transform="matrix(0.4138 -0.9104 0.9104 0.4138 -53.0166 157.8317)" class="st1" width="3.9" height="23.8"/>
		<path class="st1" d="M138.4,111.2h-7.9v-3.9h7.9c9.8,0,17.7-7.9,17.7-17.7c0-9.1-6.9-16.7-15.9-17.6l-1.8-0.2l0-2
			c0-14-11.5-25.5-25.6-25.5c-9.8,0-18.9,5.8-23.1,14.7l-1,2.1l-1.9-1.3c-1.6-1.1-3.5-1.7-5.5-1.7c-3.9,0-7.4,2.3-9,5.8l-0.7,1.6
			L70,65c-2.1-0.6-4.2-1-6.4-1c-11.9,0-21.6,9.7-21.6,21.6s9.7,21.6,21.6,21.6h3.9v3.9h-3.9C49.5,111.2,38,99.8,38,85.6
			s11.5-25.6,25.6-25.6c2,0,4,0.2,6,0.7c2.5-4.1,6.9-6.6,11.8-6.6c2,0,4,0.4,5.8,1.3c5.2-9.2,15.1-15,25.7-15
			c15.7,0,28.6,12.4,29.5,27.9C152.5,70.1,160,79,160,89.6C160,101.5,150.3,111.2,138.4,111.2z"/>
		<rect x="40" y="156.5" class="st1" width="2" height="3.9"/>
		<path class="st1" d="M69.9,160.4h-3.5v-3.9h3.5V160.4z M62.9,160.4h-3.5v-3.9h3.5V160.4z M55.9,160.4h-3.5v-3.9h3.5V160.4z
			 M48.9,160.4h-3.5v-3.9h3.5V160.4z"/>
		<rect x="73.4" y="156.5" class="st1" width="3.9" height="3.9"/>
		<path class="st1" d="M77.4,152.6h-3.9v-3.9h3.9V152.6z M77.4,144.7h-3.9v-3.9h3.9V144.7z M77.4,136.8h-3.9v-3.9h3.9V136.8z
			 M77.4,128.9h-3.9V125h3.9V128.9z"/>
		<rect x="73.4" y="119.1" class="st1" width="3.9" height="2"/>
		<rect x="156.1" y="156.5" class="st1" width="2" height="3.9"/>
		<path class="st1" d="M152.6,160.4h-3.5v-3.9h3.5V160.4z M145.6,160.4h-3.5v-3.9h3.5V160.4z M138.6,160.4h-3.5v-3.9h3.5V160.4z
			 M131.6,160.4h-3.5v-3.9h3.5V160.4z"/>
		<rect x="120.6" y="156.5" class="st1" width="3.9" height="3.9"/>
		<path class="st1" d="M124.6,152.9h-3.9v-3.5h3.9V152.9z M124.6,145.9h-3.9v-3.5h3.9V145.9z"/>
		<rect x="120.6" y="136.8" class="st1" width="3.9" height="2"/>
		<path class="st1" d="M101,160.4H97v-3.9h3.9V160.4z M101,152.6H97v-3.9h3.9V152.6z M101,144.7H97v-3.9h3.9V144.7z"/>
	</g>
</g>
</svg>
