<svg xmlns="http://www.w3.org/2000/svg" viewBox="0 0 90 90" xml:space="preserve"><path d="m62.5 47.6-1.3-2.5c.6-.3 14.7-8.3 14.7-28.3 0-7.4-1.6-12.3-2.3-14.1H36.1c-.7 1.9-2.3 7-2.3 15.5 0 18.6 14.6 26.8 14.7 26.9l-1.3 2.5c-.7-.4-16.2-9.1-16.2-29.4C31 6.7 33.8.9 34 .7c.1-.4.6-.7 1.2-.7h39.4c.5 0 1 .3 1.3.8.1.2 3 6 3 16.1-.2 21.7-15.7 30.4-16.4 30.7M45 81.6c-.8 0-1.4.6-1.4 1.4v2.8c0 .8.6 1.4 1.4 1.4h19.7c.8 0 1.4-.6 1.4-1.4V83c0-.8-.6-1.4-1.4-1.4H45zM64.7 90H45c-2.3 0-4.2-1.9-4.2-4.2V83c0-2.3 1.9-4.2 4.2-4.2h19.7c2.3 0 4.2 1.9 4.2 4.2v2.8c0 2.3-1.9 4.2-4.2 4.2zm-2.8-33.8h5.6v-2.8h-5.6v2.8zm-35.2-5.6h-5.6v-2.8h5l6.6-6.6 2 2-7 7c-.2.3-.6.4-1 .4M8.4 78.8h11.2V50.6H8.4v28.2zm12.7 2.8H7c-.8 0-1.4-.6-1.4-1.4v-31c0-.8.6-1.4 1.4-1.4h14.1c.8 0 1.4.6 1.4 1.4v30.9c0 .8-.6 1.5-1.4 1.5zM0 50.6h7v-2.8H0v2.8zm0 31h7v-2.8H0v2.8zm14.1-5.7h2.8v-2.8h-2.8v2.8zm53.4-11.2v-2.8c1.6 0 2.8-1.3 2.8-2.8s-1.3-2.8-2.8-2.8v-2.8c3.1 0 5.6 2.5 5.6 5.6s-2.5 5.6-5.6 5.6m-5.6 0h5.6v-2.8h-5.6v2.8zm2.8-8.5v-2.8c1.6 0 2.8-1.3 2.8-2.8s-1.3-2.8-2.8-2.8H43.6V45h21.1c3.1 0 5.6 2.5 5.6 5.6s-2.5 5.6-5.6 5.6m-1.4 25.4H35.2c-.2 0-.4-.1-.6-.1l-5.3-2.7h-3.9V76h4.2c.2 0 .4.1.6.1l5.3 2.7h27.8c1.6 0 2.8-1.3 2.8-2.8s-1.3-2.8-2.8-2.8v-2.8c3.1 0 5.6 2.5 5.6 5.6s-2.5 5.6-5.6 5.6m1.4-8.5h-2.8v-2.8h2.8c1.6 0 2.8-1.3 2.8-2.8s-1.3-2.8-2.8-2.8v-2.8c3.1 0 5.6 2.5 5.6 5.6s-2.5 5.6-5.6 5.6m-9.9-50.6c.3 0 .5.1.7.2l3.5 2.1-1.3-3.2c-.2-.6 0-1.3.5-1.6l2.2-1.7h-2.8c-.6 0-1.1-.4-1.3-.9l-1.5-3.8-1.5 3.8c-.2.5-.7.9-1.3.9h-2.8l2.2 1.7c.5.4.7 1.1.5 1.6l-1.3 3.2 3.5-2.1c.2-.1.5-.2.7-.2m7.1 7c-.3 0-.5-.1-.7-.2l-6.3-3.8-6.3 3.8c-.5.3-1.2.3-1.6-.1-.5-.4-.6-1-.4-1.6l2.4-6-4.8-3.6c-.5-.4-.7-1-.5-1.6.2-.6.7-1 1.3-1h6.1l2.5-6.1c.2-.5.7-.9 1.3-.9s1.1.4 1.3.9l2.5 6.1h6.1c.6 0 1.1.4 1.3 1 .2.6 0 1.2-.5 1.6l-4.8 3.6 2.4 6c.2.6.1 1.2-.4 1.6-.3.2-.6.3-.9.3m4 16.2-2.4-1.4c1.6-2.7 4.9-4.5 8.7-6.6 7-3.8 15-8.1 15-19.4v-2.8h-2.8v2.8h-2.8v-4.2c0-.8.6-1.4 1.4-1.4h5.6c.8 0 1.4.6 1.4 1.4v4.2c0 13-9.1 17.9-16.4 21.9-3.5 1.9-6.5 3.5-7.7 5.5m-22.1 0c-1.2-2-4.2-3.7-7.7-5.5-7.3-4-16.4-8.9-16.4-21.9v-4.2c0-.8.6-1.4 1.4-1.4h5.6c.8 0 1.4.6 1.4 1.4v4.2h-2.8v-2.8h-2.8v2.8c0 11.3 8 15.6 15 19.4 3.8 2.1 7.1 3.9 8.7 6.6l-2.4 1.4z" fill="#dc3545"/></svg>