<svg xmlns="http://www.w3.org/2000/svg" viewBox="0 0 96 90" xml:space="preserve"><path d="M46.2 87.8h3V67h-3v20.8zm26.8 0h-3v-1.2l-7.3-19.1 2.8-1.1L73 86.1v1.7zm-47.7 0h-3V86l7.5-19.6 2.8 1.1-7.3 19.1v1.2zm64-25.3H6V17.9h3v41.7h77.4V17.9h3l-.1 44.6zM39.3 0l-3 6H0v8.9h95.3V6H59l-3-6H39.3zM3 8.9h35.2l3-6h13l3 6h35.2v3H3v-3zm23.8 22.5c-4.2.7-7.4 4.4-7.4 8.8 0 4.9 4 8.9 8.9 8.9 4.4 0 8.1-3.2 8.8-7.4H26.8V31.4zm1.5 20.7c-6.6 0-11.9-5.3-11.9-11.9s5.3-11.9 11.9-11.9h1.5v10.4h10.4v1.5c0 6.6-5.3 11.9-11.9 11.9zm7.4-19.3H43c-.6-3.7-3.6-6.7-7.3-7.3v7.3zm10.5 2.9H32.8V22.3h1.5c6.6 0 11.9 5.3 11.9 11.9v1.5zm-3-26.8h8.9V6h-8.9v2.9zm8.9 26.8h26.8v-3H52.1v3zm0 6h26.8v-3H52.1v3zm0 5.9h26.8v-3H52.1v3zm6-19.3h3v-3h-3v3zm5.9 0h3v-3h-3v3zm6 0h3v-3h-3v3zm-70 61h95.3v-3H0v3zm89.3-20.8H6V61h3v4.5h77.4V61h3l-.1 7.5z" fill="#dc3545"/></svg>