<svg width="100" height="100" xmlns="http://www.w3.org/2000/svg" viewBox="0 0 100 100"><defs><style>.cls-1{fill:#1ba1e6;}</style></defs><path class="cls-1" d="m50,22.26c-15.01,0-27.23,12.22-27.23,27.23s12.22,27.23,27.23,27.23,27.23-12.22,27.23-27.23-12.22-27.23-27.23-27.23Zm0,51.59c-13.43,0-24.36-10.93-24.36-24.36s10.93-24.36,24.36-24.36,24.36,10.93,24.36,24.36-10.93,24.36-24.36,24.36Z"/><path class="cls-1" d="m58.6,43.76v-5.73c0-4.74-3.86-8.6-8.6-8.6s-8.6,3.86-8.6,8.6v5.73c-2.37,0-4.3,1.93-4.3,4.3v14.33c0,2.37,1.93,4.3,4.3,4.3h17.2c2.37,0,4.3-1.93,4.3-4.3v-14.33c0-2.37-1.93-4.3-4.3-4.3Zm-14.33-5.73c0-3.16,2.57-5.73,5.73-5.73s5.73,2.57,5.73,5.73v5.73h-11.46v-5.73Zm15.76,24.36c0,.79-.64,1.43-1.43,1.43h-17.2c-.79,0-1.43-.64-1.43-1.43v-14.33c0-.79.64-1.43,1.43-1.43h17.2c.79,0,1.43.64,1.43,1.43v14.33Z"/><path class="cls-1" d="m50,49.49c-2.37,0-4.3,1.93-4.3,4.3,0,1.87,1.2,3.44,2.87,4.04v3.13h2.87v-3.13c1.66-.59,2.87-2.17,2.87-4.04,0-2.37-1.93-4.3-4.3-4.3Zm0,5.73c-.79,0-1.43-.64-1.43-1.43s.64-1.43,1.43-1.43,1.43.64,1.43,1.43-.64,1.43-1.43,1.43Z"/><polygon class="cls-1" points="46.12 14.09 48.15 16.11 50 14.26 51.85 16.11 53.88 14.09 52.03 12.23 54.3 12.23 54.3 9.37 51.43 9.37 51.43 6.5 48.57 6.5 48.57 9.37 45.7 9.37 45.7 12.23 47.97 12.23 46.12 14.09"/><polygon class="cls-1" points="64.75 19.82 66.78 21.84 68.63 19.99 70.48 21.84 72.51 19.82 70.66 17.96 72.93 17.96 72.93 15.1 70.06 15.1 70.06 12.23 67.2 12.23 67.2 15.1 64.33 15.1 64.33 17.96 66.6 17.96 64.75 19.82"/><polygon class="cls-1" points="79.08 34.15 81.11 36.18 82.96 34.32 84.81 36.18 86.84 34.15 84.99 32.3 87.26 32.3 87.26 29.43 84.39 29.43 84.39 26.56 81.53 26.56 81.53 29.43 78.66 29.43 78.66 32.3 80.94 32.3 79.08 34.15"/><polygon class="cls-1" points="92.99 48.06 90.13 48.06 90.13 45.19 87.26 45.19 87.26 48.06 84.39 48.06 84.39 50.93 86.67 50.93 84.81 52.78 86.84 54.81 88.69 52.95 90.55 54.81 92.57 52.78 90.72 50.93 92.99 50.93 92.99 48.06"/><polygon class="cls-1" points="51.43 83.89 48.57 83.89 48.57 86.75 45.7 86.75 45.7 89.62 47.97 89.62 46.12 91.47 48.15 93.5 50 91.65 51.85 93.5 53.88 91.47 52.03 89.62 54.3 89.62 54.3 86.75 51.43 86.75 51.43 83.89"/><polygon class="cls-1" points="84.39 63.82 81.53 63.82 81.53 66.69 78.66 66.69 78.66 69.56 80.94 69.56 79.08 71.41 81.11 73.44 82.96 71.58 84.81 73.44 86.84 71.41 84.99 69.56 87.26 69.56 87.26 66.69 84.39 66.69 84.39 63.82"/><polygon class="cls-1" points="71.5 78.16 68.63 78.16 68.63 81.02 65.76 81.02 65.76 83.89 68.04 83.89 66.18 85.74 68.21 87.77 70.06 85.91 71.92 87.77 73.94 85.74 72.09 83.89 74.36 83.89 74.36 81.02 71.5 81.02 71.5 78.16"/><polygon class="cls-1" points="27.49 19.82 29.52 21.84 31.37 19.99 33.22 21.84 35.25 19.82 33.4 17.96 35.67 17.96 35.67 15.1 32.8 15.1 32.8 12.23 29.94 12.23 29.94 15.1 27.07 15.1 27.07 17.96 29.34 17.96 27.49 19.82"/><polygon class="cls-1" points="18.47 26.56 15.61 26.56 15.61 29.43 12.74 29.43 12.74 32.3 15.01 32.3 13.16 34.15 15.19 36.18 17.04 34.32 18.89 36.18 20.92 34.15 19.06 32.3 21.34 32.3 21.34 29.43 18.47 29.43 18.47 26.56"/><polygon class="cls-1" points="13.16 54.81 15.19 52.78 13.33 50.93 15.61 50.93 15.61 48.06 12.74 48.06 12.74 45.19 9.87 45.19 9.87 48.06 7.01 48.06 7.01 50.93 9.28 50.93 7.43 52.78 9.45 54.81 11.31 52.95 13.16 54.81"/><polygon class="cls-1" points="18.47 63.82 15.61 63.82 15.61 66.69 12.74 66.69 12.74 69.56 15.01 69.56 13.16 71.41 15.19 73.44 17.04 71.58 18.89 73.44 20.92 71.41 19.06 69.56 21.34 69.56 21.34 66.69 18.47 66.69 18.47 63.82"/><polygon class="cls-1" points="31.37 78.16 28.5 78.16 28.5 81.02 25.64 81.02 25.64 83.89 27.91 83.89 26.06 85.74 28.08 87.77 29.94 85.91 31.79 87.77 33.82 85.74 31.96 83.89 34.24 83.89 34.24 81.02 31.37 81.02 31.37 78.16"/></svg>