<svg width="100" height="100" xmlns="http://www.w3.org/2000/svg" viewBox="0 0 100 100"><defs><style>.cls-1{fill:none;stroke:#1ba1e6;stroke-linecap:round;stroke-miterlimit:10;stroke-width:2.65px;}.cls-2{fill:#1ba1e6;fill-rule:evenodd;}</style></defs><line class="cls-1" x1="37.28" y1="19.91" x2="62.72" y2="19.91"/><line class="cls-1" x1="31.17" y1="28.05" x2="69.84" y2="28.05"/><line class="cls-1" x1="31.17" y1="36.19" x2="69.84" y2="36.19"/><line class="cls-1" x1="31.17" y1="43.32" x2="69.84" y2="43.32"/><line class="cls-1" x1="31.17" y1="51.46" x2="69.84" y2="51.46"/><line class="cls-1" x1="31.17" y1="59.6" x2="44.4" y2="59.6"/><path class="cls-2" d="m77.03,4.85H22.97c-1.54,0-2.79,1.25-2.79,2.79v75.43c0,1.54,1.25,2.79,2.79,2.79h26.18l.8-2.65h-26.98c-.07,0-.14-.07-.14-.14V7.64c0-.07.07-.14.14-.14h54.06c.07,0,.14.07.14.14v75.43c0,.07-.07.14-.14.14h-5.71l.98,2.65h4.73c1.54,0,2.79-1.25,2.79-2.79V7.64c0-1.54-1.25-2.79-2.79-2.79Z"/><path class="cls-2" d="m63,81.29l-1.21,3.72,3.13,9.63c.23.71.58.62.87.07l1.72-3.27c.11-.21.26-.26.47-.15l3.31,1.64c.56.27.89.15.66-.57l-4.38-13.47c-.19.02-.36.04-.43.06-.14.11-.48.63-.61.79-.52.67-1.38,1.18-2.2,1.4-.42.11-.88.17-1.34.15h0Zm6.03-13.26c0,4.53-3.67,8.2-8.2,8.2s-8.2-3.67-8.2-8.2,3.67-8.2,8.2-8.2,8.2,3.67,8.2,8.2h0Zm-8.2,6.36c3.51,0,6.36-2.85,6.36-6.36s-2.85-6.36-6.36-6.36-6.36,2.85-6.36,6.36,2.85,6.36,6.36,6.36h0Zm.01,6.25c-.18.02-.73.31-.92.38-.79.32-1.78.33-2.6.11-.82-.22-1.68-.72-2.2-1.4-.12-.16-.47-.69-.58-.78-.08-.03-.26-.06-.45-.08l-3.92,12.06c-.23.71.1.84.66.57l3.31-1.64c.21-.1.36-.05.47.15l1.72,3.27c.29.55.63.64.87-.07l4.04-12.43c-.17-.08-.32-.14-.39-.15h0Zm-1.62-23.91c-.4-.17-1-.15-1.43-.04-.44.12-.96.4-1.22.75-.37.47-.63.97-1.13,1.25-.5.29-1.06.27-1.65.35-.43.06-.94.37-1.26.69-.32.32-.63.83-.69,1.26-.08.59-.06,1.15-.35,1.65-.29.5-.78.76-1.25,1.13-.35.27-.63.79-.75,1.22-.12.44-.13,1.03.04,1.43.23.55.52,1.03.52,1.6s-.29,1.05-.52,1.6c-.17.4-.15,1-.04,1.43.12.44.4.96.75,1.22.47.37.97.63,1.25,1.13.29.5.27,1.06.35,1.65.06.43.37.94.69,1.26.32.32.83.63,1.26.69.59.08,1.15.06,1.65.35.5.29.76.78,1.13,1.25.27.35.79.63,1.22.75.44.12,1.03.13,1.43-.04.55-.23,1.03-.52,1.6-.52s1.05.29,1.6.52c.4.17,1,.15,1.43.04.44-.12.96-.4,1.22-.75.37-.47.63-.97,1.13-1.25.5-.29,1.06-.27,1.65-.35.43-.06.94-.37,1.26-.69.32-.32.63-.83.69-1.26.08-.59.06-1.15.35-1.65.29-.5.78-.76,1.25-1.13.35-.27.63-.79.75-1.22.12-.44.13-1.03-.04-1.43-.23-.55-.52-1.03-.52-1.6s.29-1.05.52-1.6c.17-.4.15-1,.04-1.43-.12-.44-.4-.96-.75-1.22-.47-.37-.97-.63-1.25-1.13-.29-.5-.27-1.06-.35-1.65-.06-.43-.37-.94-.69-1.26-.32-.32-.83-.63-1.26-.69-.59-.08-1.15-.06-1.65-.35-.5-.29-.76-.78-1.13-1.25-.27-.35-.79-.63-1.22-.75-.44-.12-1.03-.13-1.43.04-.55.23-1.03.52-1.6.52s-1.05-.29-1.6-.52h0Z"/></svg>