<svg version="1.0" viewBox="0 0 64 64" xmlns="http://www.w3.org/2000/svg"><path fill="#324450" d="M64 64H0V22h8v2H2v38h60V24h-6v-2h8z"/><path fill="#324450" d="M54 33h-2V9.414L44.586 2H12v31h-2V0h35.414L54 8.586zM62.388 63.791L32 40.265 1.612 63.791.388 62.209 32 37.735l31.612 24.474z"/><path fill="#324450" d="M1.707 22.293l20 20-1.414 1.414-20-20zM62.293 22.293l1.414 1.414-20 20-1.414-1.415zM53 10h-9V1h2v7h7zM31 58h2v2h-2zM35 58h2v2h-2zM27 58h2v2h-2zM40 12H16V0h24v12zm-22-2h20V2H18v8z"/><path fill="#324450" d="M20 4h2v2h-2zM24 4h2v2h-2zM28 4h2v2h-2zM16 14h32v2H16zM16 18h32v2H16zM16 22h32v2H16zM16 26h32v2H16zM16 30h32v2H16z"/></svg>