<svg version="1.1" id="Layer_1" xmlns="http://www.w3.org/2000/svg" x="0" y="0" viewBox="0 0 56 64" xml:space="preserve"><style>.st0{fill:#db2840}</style><path class="st0" d="M16 32C7.2 32 0 24.8 0 16S7.2 0 16 0s16 7.2 16 16-7.2 16-16 16zm0-30C8.3 2 2 8.3 2 16s6.3 14 14 14 14-6.3 14-14S23.7 2 16 2z"/><path class="st0" d="M16 56c-2.8 0-5-2.2-5-5V31h2v20c0 1.7 1.3 3 3 3s3-1.3 3-3V31h2v20c0 2.8-2.2 5-5 5z"/><path class="st0" d="M15 40h2v2h-2zM15 44h2v2h-2zM15 48h2v2h-2zM46.4 64H15v-6h2v4h28.6l8.4-8.4V8H32V6h24v48.4z"/><path class="st0" d="M47 63h-2V53h10v2h-8zM24 24H8V8h12v2H10v12h12v-6h2z"/><path class="st0" d="M16 19.4l-3.7-3.7 1.4-1.4 2.3 2.3 6.3-6.3 1.4 1.4zM29 39h-6v-6h6v6zm-4-2h2v-2h-2v2zM29 47h-6v-6h6v6zm-4-2h2v-2h-2v2zM29 55h-6v-6h6v6zm-4-2h2v-2h-2v2zM31 33h19v2H31zM31 37h19v2H31zM31 41h19v2H31zM31 45h19v2H31zM31 53h10v2H31zM31 49h19v2H31z"/><g><path class="st0" d="M50 29H31v-2h17v-8H34v-2h16z"/></g><g><path class="st0" d="M48 13h2v2h-2z"/></g><g><path class="st0" d="M44 13h2v2h-2z"/></g><g><path class="st0" d="M40 13h2v2h-2z"/></g></svg>