<svg version="1.1" id="Layer_1" xmlns="http://www.w3.org/2000/svg" x="0" y="0" viewBox="0 0 200 200" xml:space="preserve"><style>.st1{fill:#239dff}</style><circle cx="100" cy="100" r="100" opacity=".05" fill="#1ba1e6"/><path class="st1" d="M113.1 126.2H86.9c-3.1 0-5.6-2.5-5.6-5.6V98.1c0-3.1 2.5-5.6 5.6-5.6h26.2c3.1 0 5.6 2.5 5.6 5.6v22.5c0 3.1-2.5 5.6-5.6 5.6zM86.9 96.3c-1 0-1.9.8-1.9 1.9v22.5c0 1 .8 1.9 1.9 1.9h26.2c1 0 1.9-.8 1.9-1.9V98.1c0-1-.8-1.9-1.9-1.9H86.9z"/><path class="st1" d="M115 94.4h-3.7v-7.5c0-5.2-4.2-9.4-9.4-9.4h-3.7c-5.2 0-9.4 4.2-9.4 9.4v7.5H85v-7.5c0-7.2 5.9-13.1 13.1-13.1h3.7c7.2 0 13.1 5.9 13.1 13.1v7.5z"/><circle class="st1" cx="100" cy="105.6" r="3.7"/><path class="st1" d="M98.1 107.5h3.7v9.4h-3.7zM53.2 98.1H70v3.7H53.2z"/><path class="st1" d="M47.6 107.5c-4.1 0-7.5-3.4-7.5-7.5s3.4-7.5 7.5-7.5 7.5 3.4 7.5 7.5-3.4 7.5-7.5 7.5zm0-11.2c-2.1 0-3.7 1.7-3.7 3.7s1.7 3.7 3.7 3.7c2.1 0 3.7-1.7 3.7-3.7s-1.6-3.7-3.7-3.7zM129.9 98.1h16.8v3.7h-16.8z"/><path class="st1" d="M152.4 107.5c-4.1 0-7.5-3.4-7.5-7.5s3.4-7.5 7.5-7.5 7.5 3.4 7.5 7.5-3.4 7.5-7.5 7.5zm0-11.2c-2.1 0-3.7 1.7-3.7 3.7s1.7 3.7 3.7 3.7c2.1 0 3.7-1.7 3.7-3.7s-1.6-3.7-3.7-3.7zM139.3 131.8h-3.7v-11.2c0-3.1-2.5-5.6-5.6-5.6h-7.5v-3.7h7.5c5.2 0 9.4 4.2 9.4 9.4v11.1z"/><path class="st1" d="M137.4 144.9c-4.1 0-7.5-3.4-7.5-7.5s3.4-7.5 7.5-7.5 7.5 3.4 7.5 7.5c0 4.2-3.3 7.5-7.5 7.5zm0-11.2c-2.1 0-3.7 1.7-3.7 3.7s1.7 3.7 3.7 3.7 3.7-1.7 3.7-3.7-1.6-3.7-3.7-3.7zM64.4 131.8h-3.7v-11.2c0-5.2 4.2-9.4 9.4-9.4h7.5v3.7h-7.5c-3.1 0-5.6 2.5-5.6 5.6v11.3z"/><path class="st1" d="M62.6 144.9c-4.1 0-7.5-3.4-7.5-7.5s3.4-7.5 7.5-7.5 7.5 3.4 7.5 7.5c0 4.2-3.4 7.5-7.5 7.5zm0-11.2c-2.1 0-3.7 1.7-3.7 3.7s1.7 3.7 3.7 3.7 3.7-1.7 3.7-3.7-1.7-3.7-3.7-3.7zM129.9 88.8h-7.5V85h7.5c3.1 0 5.6-2.5 5.6-5.6V68.2h3.7v11.2c.1 5.2-4.1 9.4-9.3 9.4z"/><path class="st1" d="M137.4 70.1c-4.1 0-7.5-3.4-7.5-7.5s3.4-7.5 7.5-7.5 7.5 3.4 7.5 7.5-3.3 7.5-7.5 7.5zm0-11.3c-2.1 0-3.7 1.7-3.7 3.7s1.7 3.7 3.7 3.7 3.7-1.7 3.7-3.7-1.6-3.7-3.7-3.7zM77.5 88.8H70c-5.2 0-9.4-4.2-9.4-9.4V68.2h3.7v11.2c0 3.1 2.5 5.6 5.6 5.6h7.5v3.8z"/><path class="st1" d="M62.6 70.1c-4.1 0-7.5-3.4-7.5-7.5s3.4-7.5 7.5-7.5 7.5 3.4 7.5 7.5-3.4 7.5-7.5 7.5zm0-11.3c-2.1 0-3.7 1.7-3.7 3.7s1.7 3.7 3.7 3.7 3.7-1.7 3.7-3.7-1.7-3.7-3.7-3.7zM88.8 144.9c-4.1 0-7.5-3.4-7.5-7.5s3.4-7.5 7.5-7.5 7.5 3.4 7.5 7.5c0 4.2-3.4 7.5-7.5 7.5zm0-11.2c-2.1 0-3.7 1.7-3.7 3.7s1.7 3.7 3.7 3.7c2.1 0 3.7-1.7 3.7-3.7s-1.7-3.7-3.7-3.7z"/><g><path class="st1" d="M86.9 143.1h3.7v16.8h-3.7z"/></g><g><path class="st1" d="M111.2 144.9c-4.1 0-7.5-3.4-7.5-7.5s3.4-7.5 7.5-7.5 7.5 3.4 7.5 7.5c0 4.2-3.3 7.5-7.5 7.5zm0-11.2c-2.1 0-3.7 1.7-3.7 3.7s1.7 3.7 3.7 3.7c2.1 0 3.7-1.7 3.7-3.7s-1.6-3.7-3.7-3.7z"/></g><g><path class="st1" d="M109.4 143.1h3.7v16.8h-3.7z"/></g><g><path class="st1" d="M88.8 70.1c-4.1 0-7.5-3.4-7.5-7.5s3.4-7.5 7.5-7.5 7.5 3.4 7.5 7.5-3.4 7.5-7.5 7.5zm0-11.3c-2.1 0-3.7 1.7-3.7 3.7s1.7 3.7 3.7 3.7c2.1 0 3.7-1.7 3.7-3.7s-1.7-3.7-3.7-3.7z"/></g><g><path class="st1" d="M86.9 40.1h3.7v16.8h-3.7z"/></g><g><path class="st1" d="M111.2 70.1c-4.1 0-7.5-3.4-7.5-7.5s3.4-7.5 7.5-7.5 7.5 3.4 7.5 7.5-3.3 7.5-7.5 7.5zm0-11.3c-2.1 0-3.7 1.7-3.7 3.7s1.7 3.7 3.7 3.7c2.1 0 3.7-1.7 3.7-3.7s-1.6-3.7-3.7-3.7z"/></g><g><path class="st1" d="M109.4 40.1h3.7v16.8h-3.7z"/></g><g><path class="st1" d="M122.5 98.1h3.7v3.7h-3.7z"/></g><g><path class="st1" d="M73.8 98.1h3.7v3.7h-3.7z"/></g></svg>