<svg width="100" height="100" xmlns="http://www.w3.org/2000/svg" viewBox="0 0 100 100"><defs><style>.cls-1{fill:#1ba1e6;}</style></defs><path class="cls-1" d="m7.16,40.31h85.68c.56,0,1.02-.46,1.02-1.02s-.46-1.02-1.02-1.02h-3.81c-5.14-17.11-21.03-29.01-38.96-29.04h0s-.05,0-.07,0-.05,0-.07,0h0c-17.93.03-33.82,11.93-38.96,29.04h-3.81c-.56,0-1.02.46-1.02,1.02s.46,1.02,1.02,1.02Zm79.73-2.04h-15.38s0-.06,0-.09c-.86-3.72-2.1-7.02-3.53-9.95h14.05c2.08,3.04,3.71,6.42,4.86,10.04Zm-6.37-12.07h-13.62c-4.17-7.52-9.57-12.25-13.03-14.71,10.64,1.07,20.23,6.52,26.65,14.71Zm-29.5-14.16c2.76,1.77,8.83,6.27,13.52,14.16h-13.52v-14.16Zm0,16.2h14.63c1.54,2.93,2.86,6.26,3.77,10.04h-18.4v-10.04Zm-2.04,10.04h-18.4c.91-3.78,2.24-7.11,3.77-10.04h14.63v10.04Zm0-12.07h-13.52c4.69-7.88,10.76-12.39,13.52-14.16v14.16Zm-2.84-14.71c-3.46,2.47-8.86,7.19-13.03,14.71h-13.62c6.42-8.2,16.02-13.64,26.65-14.71Zm-28.17,16.75h14.05c-1.43,2.93-2.67,6.23-3.53,9.95,0,.03,0,.06,0,.09h-15.38c1.15-3.62,2.78-7,4.86-10.04Z"/><path class="cls-1" d="m92.84,59.69H7.16c-.56,0-1.02.46-1.02,1.02s.46,1.02,1.02,1.02h3.81c5.14,17.13,21.07,29.04,39.03,29.04h0c17.97,0,33.89-11.91,39.03-29.04h3.81c.56,0,1.02-.46,1.02-1.02s-.46-1.02-1.02-1.02Zm-79.73,2.04h15.39c.86,3.75,2.08,7.09,3.53,10.04h-14.05c-2.08-3.04-3.71-6.42-4.86-10.04Zm6.37,12.08h13.61c4.17,7.52,9.58,12.24,13.04,14.71-10.64-1.07-20.23-6.52-26.65-14.71Zm29.5,14.16c-2.75-1.76-8.8-6.28-13.5-14.16h13.5v14.16Zm0-16.19h-14.62c-1.54-2.93-2.85-6.26-3.76-10.04h18.38v10.04Zm2.04-10.04h18.38c-.91,3.78-2.23,7.11-3.76,10.04h-14.62v-10.04Zm0,12.08h13.5c-4.69,7.88-10.74,12.39-13.5,14.16v-14.16Zm2.85,14.71c3.46-2.47,8.87-7.19,13.04-14.71h13.61c-6.42,8.2-16.02,13.64-26.65,14.71Zm28.16-16.75h-14.05c1.44-2.95,2.66-6.29,3.53-10.04h15.39c-1.15,3.62-2.78,7-4.86,10.04Z"/><rect class="cls-1" x="13.97" y="43.78" width="1.59" height="12.44"/><path class="cls-1" d="m22.43,55.04c-1.31,0-2.58-.57-3.49-1.5l-.89,1.04c1.08,1.16,2.58,1.86,4.36,1.86,2.62,0,4.25-1.58,4.25-3.55,0-1.84-1.12-2.71-2.56-3.32l-1.78-.78c-.97-.4-2.05-.85-2.05-2.05,0-1.1.91-1.8,2.29-1.8,1.08,0,2.05.44,2.81,1.16l.87-1.06c-.87-.87-2.16-1.5-3.68-1.5-2.26,0-3.91,1.4-3.91,3.3s1.35,2.71,2.5,3.21l1.8.8c1.16.51,2.07.91,2.07,2.18,0,1.2-.97,2.01-2.6,2.01Z"/><path class="cls-1" d="m28.37,49.94c0,4,2.18,6.51,5.31,6.51s5.33-2.5,5.33-6.51-2.2-6.39-5.33-6.39-5.31,2.41-5.31,6.39Zm8.99,0c0,3.11-1.46,5.1-3.68,5.1s-3.66-1.99-3.66-5.1,1.44-4.99,3.66-4.99,3.68,1.9,3.68,4.99Z"/><path class="cls-1" d="m40.74,55.25v.97h7.82v-1.35h-3.62c-.63,0-1.37.04-2.03.1,2.94-3,5.07-5.18,5.07-7.53,0-2.13-1.4-3.55-3.64-3.55-1.56,0-2.64.74-3.64,1.88l.89.85c.68-.8,1.56-1.44,2.56-1.44,1.54,0,2.3.97,2.3,2.35,0,1.95-2.09,4.19-5.69,7.72Z"/><path class="cls-1" d="m54.27,56.22c.21-4.72.87-7.46,3.78-11.14v-.97h-7.8v1.37h6.03c-2.45,3.34-3.41,6.18-3.62,10.74h1.61Z"/><path class="cls-1" d="m59.68,50.13c0,4.06,1.46,6.32,3.89,6.32s3.87-2.26,3.87-6.32-1.46-6.24-3.87-6.24-3.89,2.18-3.89,6.24Zm6.24,0c0,3.55-.95,5.05-2.35,5.05s-2.35-1.5-2.35-5.05.95-4.97,2.35-4.97,2.35,1.42,2.35,4.97Z"/><path class="cls-1" d="m69.11,50.13c0,4.06,1.46,6.32,3.89,6.32s3.87-2.26,3.87-6.32-1.46-6.24-3.87-6.24-3.89,2.18-3.89,6.24Zm6.24,0c0,3.55-.95,5.05-2.35,5.05s-2.35-1.5-2.35-5.05.95-4.97,2.35-4.97,2.35,1.42,2.35,4.97Z"/><path class="cls-1" d="m79.2,54.91v1.31h6.83v-1.31h-2.48v-10.8h-1.21c-.66.4-1.46.7-2.58.89v1.02h2.22v8.88h-2.77Z"/></svg>