<svg xmlns="http://www.w3.org/2000/svg" viewBox="0 0 100 100"><path d="M39.58 83.72c-.56 0-1.02-.43-1.06-.99-.6-9.12-7.8-16.26-16.4-16.26s-15.8 7.14-16.4 16.26a1.06 1.06 0 0 1-2.12-.07v-.07c.14-2.15.61-4.25 1.41-6.24a19.51 19.51 0 0 1 3.96-6.23c1.7-1.81 3.69-3.23 5.9-4.22 2.29-1.03 4.73-1.55 7.24-1.55s4.95.52 7.24 1.55c2.21.99 4.2 2.41 5.9 4.22 1.7 1.8 3.03 3.9 3.96 6.23.79 1.99 1.27 4.09 1.41 6.24.02.29-.08.58-.28.79-.2.22-.48.34-.77.34Zm4.81-12.99c-.55 0-.99-.44-.99-.99s.44-.99.99-.99h48.1c1.06 0 1.92-.86 1.92-1.92V20.18c0-1.06-.86-1.92-1.92-1.92H25.44c-1.06 0-1.92.86-1.92 1.92V33.3c0 .55-.44.99-.99.99s-.99-.44-.99-.99V20.18c0-2.15 1.75-3.91 3.91-3.91h67.04c2.15 0 3.91 1.75 3.91 3.91v46.64c0 2.15-1.75 3.91-3.91 3.91h-48.1Zm-7.29-7.29c-.55 0-.99-.44-.99-.99s.44-.99.99-.99h6.3V50.79c0-.55.44-.99.99-.99h8.75c.55 0 .99.44.99.99v10.67h3.85V27.47c0-.55.44-.99.99-.99h8.75c.55 0 .99.44.99.99v33.99h3.85V36.22c0-.55.44-.99.99-.99h8.75c.55 0 .99.44.99.99v25.24h3.38c.55 0 .99.44.99.99s-.44.99-.99.99H37.12Zm37.43-1.98h6.76V48.87h-6.76v12.59Zm-14.57 0h6.76V37.21h-6.76v24.25Zm-14.57 0h6.76v-3.85h-6.76v3.85Zm0-5.83h6.76v-3.85h-6.76v3.85Zm29.15-8.75h6.76V37.2h-6.76v9.68ZM59.97 35.22h6.76v-6.76h-6.76v6.76ZM22.14 62.29c-3.92 0-7.51-1.85-9.83-5.09a11.74 11.74 0 0 1-2.02-4.88c-.37-2.28-.12-4.58.74-6.65.86-2.07 2.3-3.88 4.18-5.23a11.74 11.74 0 0 1 4.88-2.02c.68-.11 1.37-.17 2.05-.17 3.92 0 7.51 1.85 9.83 5.09a11.74 11.74 0 0 1 2.02 4.88c.37 2.28.12 4.58-.74 6.65-.86 2.07-2.3 3.88-4.18 5.23a11.74 11.74 0 0 1-4.88 2.02c-.68.11-1.37.17-2.05.17Zm0-21.92a9.81 9.81 0 0 0-7 2.91 9.842 9.842 0 0 0-2.9 7c0 5.45 4.44 9.88 9.89 9.89h.01a9.81 9.81 0 0 0 7-2.91 9.842 9.842 0 0 0 2.9-7c0-5.45-4.44-9.88-9.89-9.89h-.01Z" fill="#1ba1e6"/></svg>