<svg width="100" height="100" xmlns="http://www.w3.org/2000/svg" viewBox="0 0 100 100"><defs><style>.cls-1{fill:#1ba1e6;}</style></defs><path class="cls-1" d="m95.84,60.88c-.24-.3-.59-.47-.97-.47-.28,0-.55.1-.77.27l-5.23,4.18-16.24-24.53,4.95-4.09c.53-.44.6-1.22.16-1.74-.24-.29-.58-.45-.96-.45-.29,0-.57.1-.79.28l-5.8,4.8c-.49.4-.59,1.11-.24,1.64l1.73,2.61c-1.27.24-2.63.37-4.05.37-2.57,0-5.13-.41-7.23-1.17-1.73-.62-3.24-.91-4.77-.91-2.17,0-4.2.6-6.44,1.34-.64.21-1.33.44-2,.67-1.59.54-3.22,1.1-4.64,1.48l-.46.12c-.24.07-.46.12-.67.18-1-.02-8.36-.26-12.55-2.93l1.17-1.77c.35-.53.25-1.23-.24-1.64l-5.8-4.8c-.22-.18-.5-.28-.79-.28-.37,0-.72.16-.96.45-.21.25-.31.58-.28.91.03.33.19.63.44.84l4.95,4.09-16.24,24.53-5.23-4.18c-.22-.18-.49-.27-.77-.27-.38,0-.73.17-.97.47-.21.26-.3.58-.26.91.04.33.2.62.46.83l6.29,5.03c.22.18.49.27.77.27.07,0,.13,0,.19-.02.34-.05.65-.25.84-.54l.83-1.26c1.74,2.73,3.63,4.7,4.71,5.72l-1,1.29c-.86,1.11-1.23,2.49-1.05,3.88.18,1.39.89,2.63,2.01,3.48.82.63,1.8,1,2.83,1.08.11,0,.23.01.33.01-.17.65-.22,1.34-.13,2.02.18,1.39.89,2.63,2.01,3.48.82.63,1.8,1,2.82,1.08.12,0,.25.01.38.01.55,0,1.09-.09,1.62-.26,0,0,0,.01,0,.02.18,1.39.89,2.63,2.01,3.48.82.63,1.8,1,2.83,1.07.13,0,.25.01.38.01.96,0,1.89-.26,2.71-.76.29.93.85,1.74,1.62,2.36.78.63,1.73.99,2.72,1.07.12,0,.23.01.35.01,1.51,0,2.92-.68,3.87-1.87l1.62-2.13s.11.08.11.08c1.12.85,2.52,1.92,4.03,2.76,1.8,1.01,3.38,1.5,4.83,1.5h0c1.71,0,3.21-.7,4.47-2.09.62-.68.97-1.59,1.01-2.55.42.09.85.09,1.29.09h.22c2,0,3.74-.88,4.77-2.42.7-1.05,1.03-2.25.94-3.5.63.23,1.26.35,1.89.35,1.93,0,3.71-.95,4.77-2.53.94-1.41,1.22-3.12.78-4.73,1.87-.05,3.59-1,4.63-2.56,1.1-1.66,1.25-3.77.42-5.58,1.44-.64,3.98-1.95,6.46-4.19l1.02,1.54c.19.29.5.49.84.54.06.01.13.02.19.02.28,0,.56-.1.77-.27l6.29-5.03c.26-.21.42-.5.46-.83.04-.33-.06-.65-.26-.91Zm-37.57,4.68c-.42,0-.8.21-1.03.55-.18.28-.25.61-.18.93.07.32.25.6.53.79l4.12,2.73s.02.01.03.02l9.16,6.07.43.28c1.5,1.05,1.88,3.06.87,4.58-.61.91-1.62,1.45-2.71,1.45-.64,0-1.26-.19-1.8-.55l-8.74-5.83-3.66-2.45c-.2-.14-.44-.21-.69-.21-.41,0-.8.21-1.03.55-.38.57-.23,1.34.34,1.72l.36.24s.02.02.04.03l3.12,2.08,6.29,4.2c.72.5,1.2,1.23,1.37,2.06.17.83,0,1.68-.48,2.39-.57.85-1.56,1.34-2.71,1.34h-.01c-.77,0-1.34-.14-1.79-.44h0s-1.71-1.07-1.78-1.12l-7.86-5.22c-.2-.13-.43-.2-.68-.2-.37,0-.72.17-.96.46h0s-.05.06-.07.1c-.05.07-.09.15-.12.22-.02.06-.04.12-.05.16h0s-.01.04-.02.06h0s0,.02,0,.02c0,.03,0,.05,0,.07,0,0,0,0,0,.01-.03.31.04.6.22.88.07.1.24.25.52.45h0s7.67,5.1,7.67,5.1c.4.29.87.93.95,1.56.05.42-.06.77-.36,1.1-.77.85-1.65,1.27-2.69,1.27-2.2,0-4.81-1.85-7.3-3.75-.04-.03-.07-.06-.11-.08.67-.98.97-2.15.84-3.34-.15-1.31-.79-2.48-1.82-3.3-.78-.63-1.75-1-2.75-1.07.24-.74.32-1.53.22-2.3-.18-1.39-.89-2.63-2.01-3.48-.93-.71-2.03-1.09-3.2-1.09-.06,0-.12,0-.18,0,.09-.53.11-1.07.04-1.61-.18-1.39-.89-2.63-2.01-3.48-.93-.71-2.03-1.09-3.2-1.09-1.1,0-2.17.35-3.05.98-.32-1.03-.95-1.94-1.81-2.59-.93-.71-2.03-1.09-3.2-1.09-1.64,0-3.16.75-4.16,2.04l-1.6,2.06c-1.13-1.09-3.06-3.17-4.73-6.03l12.72-19.21c2.82,1.8,6.65,2.63,9.58,3.01-1.01.92-1.85,2.25-2.66,3.54h0c-.26.43-.54.86-.81,1.27-.45.67-.77,1.09-1.13,1.56h0c-.45.59-.95,1.25-1.85,2.56-.19.27-.26.62-.19.94.09.46.28.71,1.33,1.41.68.46,1.42.85,2.19,1.17,1.16.48,2.31.72,3.41.72.13,0,.25,0,.38,0,1.55-.08,3.09-.65,4.7-1.74,1.01-.68,1.99-1.49,3.18-2.64.21-.21.4-.42.59-.63h0c.37-.42.72-.82,1.08-.93.09-.03.21-.05.36-.05.2,0,.44.03.68.06h0c.15.02.31.04.48.05.71.06,1.42.09,2.11.09.61,0,1.21-.02,1.79-.07.25-.02.55-.03.85-.03.79,0,1.32.07,1.48.13.62.47,4.5,3.1,13.4,9.1l.22.15c3.82,2.57,7.43,5,7.9,5.34.02.01.03.03.05.04.03.02.06.04.09.06.72.48,1.22,1.21,1.39,2.06.17.85,0,1.72-.48,2.44-.6.91-1.62,1.46-2.71,1.46-.64,0-1.26-.19-1.79-.54l-14.13-9.36c-.2-.14-.44-.21-.68-.21Zm-18.02,27.12c-.5-.04-.96-.22-1.35-.53-.51-.41-.83-.99-.91-1.64-.07-.65.12-1.3.54-1.82l.54-.71,2.54-3.29c.47-.48,1.09-.74,1.75-.74.56,0,1.09.19,1.53.54.51.41.83.99.91,1.64.07.65-.12,1.29-.53,1.82l-2.91,3.82c-.47.58-1.17.92-1.92.92-.06,0-.11,0-.17,0Zm-7.22-2.68c-.07,0-.14,0-.21,0-.54-.04-1.06-.23-1.49-.57-.59-.45-.96-1.1-1.06-1.84-.1-.73.1-1.46.55-2.05l3.88-5.04,1.92-2.48c.53-.6,1.27-.93,2.07-.93.62,0,1.2.2,1.69.58.59.45.96,1.1,1.06,1.84.1.73-.1,1.46-.55,2.05l-1.22,1.58s-.03.03-.05.05h0s-.09.1-.13.16l-2.36,3.09-1.91,2.48c-.53.69-1.33,1.08-2.19,1.08Zm-12.07-10.93c-.54-.04-1.06-.24-1.49-.57-.59-.45-.96-1.1-1.06-1.84-.1-.73.1-1.46.55-2.04l4.13-5.32c.53-.69,1.33-1.08,2.2-1.08.62,0,1.2.2,1.69.57.59.45.96,1.1,1.06,1.84.1.73-.1,1.45-.54,2.03l-4.18,5.39c-.53.65-1.32,1.03-2.17,1.03-.06,0-.12,0-.18,0Zm2.49,4.18c-.1-.73.1-1.46.55-2.04l1.26-1.63s0,0,.01-.02c.02-.02.03-.03.05-.06l4.13-5.33h0s1.69-2.18,1.69-2.18c.53-.69,1.33-1.08,2.2-1.08.62,0,1.2.2,1.69.58.59.45.96,1.1,1.06,1.84.1.73-.1,1.46-.55,2.04l-.87,1.12s-.03.03-.04.05h0s-.07.08-.1.12l-1.78,2.31-4.35,5.61c-.53.69-1.33,1.08-2.19,1.08-.07,0-.14,0-.21,0-.54-.04-1.06-.23-1.49-.57-.59-.45-.96-1.1-1.06-1.84Zm54.61-15.62c-.35-.26-3.36-2.29-8.24-5.58h-.02c-5.37-3.63-12.71-8.58-13.21-8.97-.52-.45-1.51-.68-2.94-.68-.5,0-.93.03-1.15.05-.51.04-1.05.06-1.59.06-.62,0-1.25-.03-1.89-.08-.13-.01-.26-.03-.39-.04h0c-.3-.04-.63-.08-.99-.08-.41,0-.78.05-1.12.17-.99.32-1.61,1.02-2.16,1.63-.15.17-.32.35-.47.5-1.09,1.04-1.96,1.78-2.85,2.37-1.23.83-2.35,1.26-3.44,1.31-.08,0-.16,0-.25,0-.77,0-1.6-.18-2.46-.54-.54-.22-1.06-.49-1.55-.8.45-.64.78-1.07,1.08-1.45l.02-.02c.37-.49.73-.95,1.23-1.69.29-.42.57-.87.86-1.32.76-1.2,1.55-2.45,2.35-3.13,1.09-.93,2.38-1.27,3.87-1.67l.46-.12c1.49-.4,3.16-.97,4.78-1.52h0c.72-.25,1.37-.47,1.97-.66,2.42-.79,4.04-1.22,5.69-1.22,1.21,0,2.45.24,3.91.77,2.41.87,5.19,1.32,8.05,1.32,1.88,0,3.68-.2,5.35-.59.04-.01.08-.02.11-.02.02,0,.05-.01.08-.02l12,18.12c-2.63,2.46-5.44,3.76-6.65,4.25-.13-.11-.26-.21-.39-.29-.02-.01-.04-.03-.06-.04Z"/><path class="cls-1" d="m75.91,14.45c-.23-.26-.56-.41-.9-.41-1.6-.02-3.06-.37-4.6-1.11-1.43-.69-2.78-1.64-4.21-2.64h0c-1.82-1.28-3.89-2.74-6.45-3.85-2.94-1.27-6.1-1.91-9.67-1.96h-.02c-3.57,0-6.74.6-9.7,1.84-2.57,1.08-4.66,2.5-6.5,3.76h0c-1.45.99-2.81,1.93-4.25,2.6-1.55.72-3.01,1.05-4.61,1.05-.34,0-.67.15-.91.4-.23.25-.35.6-.31.94.34,3.6.98,7.14,1.9,10.53.84,3.08,1.93,6.1,3.24,8.97.52,1.13,1.07,2.25,1.66,3.34.36.67.73,1.33,1.12,1.99.48.81.99,1.63,1.5,2.41.23.34.61.55,1.02.55.68,0,1.23-.55,1.23-1.23,0-.24-.07-.47-.2-.67-1.56-2.38-2.95-4.89-4.13-7.47-1.25-2.74-2.29-5.63-3.09-8.57-.72-2.63-1.26-5.38-1.61-8.18l-.08-.61.61-.09c3.26-.49,5.7-2.16,8.28-3.93,1.83-1.25,3.72-2.55,6.07-3.53,2.65-1.11,5.51-1.65,8.74-1.65h0c3.23.04,6.09.62,8.72,1.76,2.33,1.01,4.21,2.33,6.02,3.6,2.56,1.8,4.98,3.5,8.22,4.03l.61.1-.09.61c-.39,2.79-.97,5.53-1.72,8.16-.84,2.93-1.92,5.8-3.21,8.53-1.04,2.19-2.23,4.34-3.55,6.38-.25.38-.26.85-.05,1.25.22.4.62.64,1.08.64.42,0,.8-.21,1.03-.56.45-.7.89-1.42,1.31-2.13.19-.32.38-.65.57-1,.63-1.13,1.24-2.3,1.79-3.48,1.35-2.86,2.49-5.86,3.37-8.93.97-3.37,1.66-6.91,2.05-10.5.04-.34-.07-.69-.3-.94Z"/><path class="cls-1" d="m47.47,35.16c-.36,0-.71-.14-.96-.4l-6.07-6.07c-.53-.53-.53-1.39,0-1.93.53-.53,1.39-.53,1.93,0l5.11,5.11,10.14-10.14c.53-.53,1.39-.53,1.93,0s.53,1.39,0,1.93l-11.11,11.11c-.26.26-.6.4-.96.4Z"/></svg>