<svg version="1.0" viewBox="0 0 64 54" xmlns="http://www.w3.org/2000/svg"><path d="M59 54H15a1 1 0 01-1-1V32c0-.266.105-.52.293-.707l8-8 1.414 1.414L16 32.414V52h42V32.414l-7.707-7.707 1.414-1.414 8 8A.996.996 0 0160 32v21a1 1 0 01-1 1z" fill="#324450"/><path fill="#324450" d="M30 26h2v2h-2zM34 26h2v2h-2zM38 26h2v2h-2zM42 26h2v2h-2zM30 30h2v2h-2zM34 30h2v2h-2zM38 30h2v2h-2zM42 30h2v2h-2zM30 34h2v2h-2zM34 34h2v2h-2zM38 34h2v2h-2zM42 34h2v2h-2zM30 38h14v2H30zM30 6h2v9h-2zM42 6h2v9h-2z"/><path d="M43 22H31a1 1 0 01-1-1v-6a1 1 0 011-1h12a1 1 0 011 1v6a1 1 0 01-1 1zm-11-2h10v-4H32v4zM15 40H4c-2.206 0-4-1.794-4-4s1.794-4 4-4h3c1.103 0 2-.897 2-2s-.897-2-2-2H4c-2.206 0-4-1.794-4-4s1.794-4 4-4h3c1.103 0 2-.897 2-2s-.897-2-2-2H4c-2.206 0-4-1.794-4-4s1.794-4 4-4h7v2H4c-1.103 0-2 .897-2 2s.897 2 2 2h3c2.206 0 4 1.794 4 4s-1.794 4-4 4H4c-1.103 0-2 .897-2 2s.897 2 2 2h3c2.206 0 4 1.794 4 4s-1.794 4-4 4H4c-1.103 0-2 .897-2 2s.897 2 2 2h11v2z" fill="#324450"/><path d="M51 46H23a1 1 0 01-1-1V20c0-2.206 1.794-4 4-4h5v2h-5c-1.103 0-2 .897-2 2v24h26V20c0-1.103-.897-2-2-2h-5v-2h5c2.206 0 4 1.794 4 4v25a1 1 0 01-1 1z" fill="#324450"/><path d="M15 54a.999.999 0 01-.707-1.707l8-8a.999.999 0 111.414 1.414l-8 8A.997.997 0 0115 54zM59 54a.997.997 0 01-.707-.293l-8-8a.999.999 0 111.414-1.414l8 8A.999.999 0 0159 54zM63 14H51a1 1 0 01-1-1v-3H24v3a1 1 0 01-1 1H11a1 1 0 01-1-1V4c0-2.206 1.794-4 4-4h46c2.206 0 4 1.794 4 4v9a1 1 0 01-1 1zm-11-2h10V4c0-1.103-.897-2-2-2H14c-1.103 0-2 .897-2 2v8h10V9a1 1 0 011-1h28a1 1 0 011 1v3z" fill="#324450"/></svg>