<svg version="1.1" id="Layer_1" xmlns="http://www.w3.org/2000/svg" x="0" y="0" viewBox="0 0 200 200" xml:space="preserve"><style>.st1{fill:#1ba1e6}</style><circle cx="100" cy="100" r="100" opacity=".05" fill="#1ba1e6"/><path class="st1" d="M144.4 112.1h-4V73.8c0-5.6-4.4-10.1-10.1-10.1h-8.1v-4h8.1c7.9 0 14.1 6.3 14.1 14.1v38.3zm-84.7 0h-4V73.8c0-7.9 6.3-14.1 14.1-14.1h8.1v4h-8.1c-5.6 0-10.1 4.4-10.1 10.1v38.3zm22.2 44.4h36.3v4H81.9v-4zM98 112.1h4v4h-4v-4zm-8.1 0h4v4h-4v-4zm16.1 0h4v4h-4v-4zm-6-44.4c-6.9 0-12.1-6.5-12.1-15.1 0-6 1.4-13.1 12.1-13.1s12.1 7.1 12.1 13.1c0 8.7-5.2 15.1-12.1 15.1zm0-24.2c-6 0-8.1 2.2-8.1 9.1 0 5.4 2.8 11.1 8.1 11.1s8.1-5.6 8.1-11.1c0-6.8-2.1-9.1-8.1-9.1z"/><path class="st1" d="M116.1 83.9H83.9c-3.2 0-6-3.6-6-8.1v-5.2L93 61.9l2 3.4L81.9 73v2.8c0 2.4 1.4 4 2 4h32.3c.6 0 2-1.6 2-4V73L105 65.5l2-3.4 15.1 8.7v5c.1 4.4-2.7 8.1-6 8.1zM57.7 144.4c-6.9 0-12.1-6.5-12.1-15.1 0-6 1.4-13.1 12.1-13.1s12.1 7.1 12.1 13.1c0 8.6-5.3 15.1-12.1 15.1zm0-24.2c-6 0-8.1 2.2-8.1 9.1 0 5.4 2.8 11.1 8.1 11.1s8.1-5.6 8.1-11.1c-.1-6.9-2.1-9.1-8.1-9.1z"/><path class="st1" d="M73.8 160.5H41.5c-3.2 0-6-3.6-6-8.1v-5.2l15.1-8.7 2 3.4-13.1 7.7v2.8c0 2.4 1.4 4 2 4h32.3c.6 0 2-1.6 2-4v-2.8l-13.1-7.5 2-3.4 15.1 8.7v5c0 4.5-2.8 8.1-6 8.1zM142.3 144.4c-6.9 0-12.1-6.5-12.1-15.1 0-6 1.4-13.1 12.1-13.1s12.1 7.1 12.1 13.1c0 8.6-5.2 15.1-12.1 15.1zm0-24.2c-6 0-8.1 2.2-8.1 9.1 0 5.4 2.8 11.1 8.1 11.1 5.2 0 8.1-5.6 8.1-11.1 0-6.9-2-9.1-8.1-9.1z"/><path class="st1" d="M158.5 160.5h-32.3c-3.2 0-6-3.6-6-8.1v-5.2l15.1-8.7 2 3.4-13.1 7.7v2.8c0 2.4 1.4 4 2 4h32.3c.6 0 2-1.6 2-4v-2.8l-13.1-7.5 2-3.4 15.1 8.7v5c0 4.5-2.8 8.1-6 8.1zM100 136.3c-12.3 0-22.2-9.9-22.2-22.2s9.9-22.2 22.2-22.2 22.2 9.9 22.2 22.2-9.9 22.2-22.2 22.2zm0-40.3c-10.1 0-18.1 8.1-18.1 18.1s8.1 18.1 18.1 18.1 18.1-8.1 18.1-18.1S110.1 96 100 96z"/></svg>