<svg width="200" height="200" viewBox="0 0 200 200" xmlns="http://www.w3.org/2000/svg"><g fill="#1ba1e6" fill-rule="evenodd"><circle cx="100" cy="100" fill-rule="nonzero" opacity=".05" r="100"/><g transform="translate(34 40)"><g fill-rule="nonzero"><path d="m123.75 99.31h-115.5c-4.5499 0-8.25-3.7117-8.25-8.2759v-82.759c0-4.5641 3.7001-8.2759 8.25-8.2759h115.5c4.5499 0 8.25 3.7117 8.25 8.2759v82.759c0 4.5641-3.7001 8.2759-8.25 8.2759zm-115.5-95.172c-2.2749 0-4.125 1.8559-4.125 4.1379v82.759c0 2.2821 1.8501 4.1379 4.125 4.1379h115.5c2.2749 0 4.125-1.8559 4.125-4.1379v-82.759c0-2.2821-1.8501-4.1379-4.125-4.1379z"/><path d="m80.351 96.641 6.1854 20.688-3.9518 1.1897-6.1875-20.69 3.9538-1.1876zm-28.706.0062069 3.9497 1.1876-6.1813 20.69-3.9518-1.1876z"/><path d="m39.188 115.86h53.625v4.1379h-53.625zm24.75-28.966h4.125v4.1379h-4.125zm57.75-4.1379h-111.38c-1.1391 0-2.0625-.92631-2.0625-2.069v-70.345c0-1.1427.92341-2.069 2.0625-2.069h111.38c1.1391 0 2.0625.92631 2.0625 2.069v70.345c0 1.1427-.92341 2.069-2.0625 2.069zm-109.31-4.1379h107.25v-66.207h-107.25z"/><path d="m66 70.345c-23.331 0-43.97-22.479-44.839-23.435-.71598-.78935-.71598-1.9955 0-2.7848.86831-.95586 21.508-23.435 44.839-23.435s43.97 22.479 44.839 23.435c.71598.78935.71598 1.9955 0 2.7848-.86831.95586-21.508 23.435-44.839 23.435zm-40.437-24.828c4.8613 4.8497 22.143 20.69 40.437 20.69s35.576-15.84 40.437-20.69c-4.8613-4.8497-22.143-20.69-40.437-20.69s-35.576 15.84-40.437 20.69z"/></g><path d="m66 70.345c-13.648 0-24.75-11.137-24.75-24.828h4.125c0 11.408 9.2524 20.69 20.625 20.69s20.625-9.2814 20.625-20.69c0-11.408-9.2524-20.69-20.625-20.69v-4.1379c13.648 0 24.75 11.137 24.75 24.828s-11.102 24.828-24.75 24.828z"/><path d="m53.625 45.517h-4.125c0-9.1262 7.4023-16.552 16.5-16.552v4.1379c-6.8248 0-12.375 5.5676-12.375 12.414zm12.375 16.552v-4.1379c6.8248 0 12.375-5.5676 12.375-12.414h4.125c0 9.1262-7.4023 16.552-16.5 16.552z" fill-rule="nonzero"/><path d="m66 53.793c-4.5499 0-8.25-3.7117-8.25-8.2759 0-4.5641 3.7001-8.2759 8.25-8.2759s8.25 3.7117 8.25 8.2759c0 4.5641-3.7001 8.2759-8.25 8.2759zm0-12.414c-2.2749 0-4.125 1.8559-4.125 4.1379 0 2.2821 1.8501 4.1379 4.125 4.1379s4.125-1.8559 4.125-4.1379c0-2.2821-1.8501-4.1379-4.125-4.1379z" fill-rule="nonzero"/></g></g></svg>