<svg width="200" height="200" xmlns="http://www.w3.org/2000/svg"><g fill="#1BA1E6" fill-rule="evenodd"><circle fill-rule="nonzero" opacity=".05" cx="100" cy="100" r="100"/><path d="M133.75 86.875H130v-15c0-15.563-12.563-28.125-28.125-28.125h-3.75C82.562 43.75 70 56.313 70 71.875v15h-3.75v-15C66.25 54.25 80.5 40 98.125 40h3.75c17.625 0 31.875 14.25 31.875 31.875v15z"/><path d="M122.5 81.25h-3.75v-9.375c0-9.375-7.5-16.875-16.875-16.875h-3.75C88.75 55 81.25 62.5 81.25 71.875v9.375H77.5v-9.375A20.566 20.566 0 0198.125 51.25h3.75A20.566 20.566 0 01122.5 71.875v9.375z"/><path d="M100 136.375l-15.75-15.75 8.25-8.25 7.5 7.5L116.875 103l8.25 8.25L100 136.375zm-10.5-15.75l10.5 10.5 19.875-19.875-3-3L100 125.125l-7.5-7.5-3 3z" fill-rule="nonzero"/><path d="M100 148.75c-14.438 0-26.25-11.813-26.25-26.25 0-14.438 11.813-26.25 26.25-26.25 3.563 0 6.938.75 10.125 2.063l-1.5 3.374C105.812 100.564 103 100 100 100c-12.375 0-22.5 10.125-22.5 22.5S87.625 145 100 145s22.5-10.125 22.5-22.5h3.75c0 14.438-11.813 26.25-26.25 26.25z"/><path d="M137.5 160h-75c-4.125 0-7.5-3.375-7.5-7.5v-60c0-4.125 3.375-7.5 7.5-7.5h75c4.125 0 7.5 3.375 7.5 7.5v60c0 4.125-3.375 7.5-7.5 7.5zm-75-71.25a3.761 3.761 0 00-3.75 3.75v60a3.761 3.761 0 003.75 3.75h75a3.761 3.761 0 003.75-3.75v-60a3.761 3.761 0 00-3.75-3.75h-75z" fill-rule="nonzero"/><path d="M58.188 155.688l-2.626-2.625 6.938-6.938v-47.25l-6.938-6.938 2.626-2.624 8.062 8.062v50.25zM141.813 155.688l-8.063-8.063v-50.25l8.063-8.063 2.625 2.626-6.938 6.937v47.25l6.938 6.938z"/><path d="M135.625 101.875h7.5v3.75h-7.5zM135.625 109.375h7.5v3.75h-7.5zM135.625 116.875h7.5v3.75h-7.5zM135.625 124.375h7.5v3.75h-7.5zM135.625 131.875h7.5v3.75h-7.5zM135.625 139.375h7.5v3.75h-7.5zM56.875 101.875h7.5v3.75h-7.5zM56.875 109.375h7.5v3.75h-7.5zM56.875 116.875h7.5v3.75h-7.5zM56.875 124.375h7.5v3.75h-7.5zM56.875 131.875h7.5v3.75h-7.5zM56.875 139.375h7.5v3.75h-7.5z"/></g></svg>