<svg width="200" height="200" xmlns="http://www.w3.org/2000/svg"><g fill="#1ba1e6" fill-rule="evenodd"><circle cx="100" cy="100" fill-rule="nonzero" opacity=".05" r="100"/><g fill-rule="nonzero"><path d="M100 105.625c-7.043 0-11.25-7.626-11.25-15 0-6.754 1.914-11.25 11.25-11.25s11.25 4.496 11.25 11.25c0 7.374-4.207 15-11.25 15zm0-22.5c-6.416 0-7.5 1.873-7.5 7.5 0 5.411 2.867 11.25 7.5 11.25s7.5-5.839 7.5-11.25c0-5.627-1.084-7.5-7.5-7.5z"/><path d="M115 120.625H85c-3.049 0-5.625-3.435-5.625-7.5v-3.75c0-.673.36-1.294.945-1.627l13.125-7.499 1.86 3.255-12.18 6.958v2.663c0 2.295 1.318 3.75 1.875 3.75h30c.557 0 1.875-1.455 1.875-3.75v-2.663l-12.18-6.958 1.86-3.255 13.125 7.499c.584.333.945.954.945 1.627v3.75c0 4.065-2.576 7.5-5.625 7.5zM98.125 141.25h3.75V160h-3.75z"/><path d="M106.174 150.08L100 143.906l-6.175 6.174-2.651-2.651 7.5-7.5a1.873 1.873 0 012.651 0l7.5 7.5zM98.124 40h3.75v18.75h-3.75z"/><path d="M100 60.625a1.87 1.87 0 01-1.326-.55l-7.5-7.5 2.652-2.65L100 56.098l6.174-6.175 2.652 2.652-7.5 7.5c-.351.353-.828.55-1.326.549zm41.25 37.5H160v3.75h-18.75z"/><path d="M147.42 108.826l-7.5-7.5a1.867 1.867 0 010-2.651l7.5-7.5 2.651 2.651-6.174 6.174 6.174 6.175zM40 98.125h18.75v3.75H40z"/><path d="M52.576 108.826l-2.651-2.651L56.099 100l-6.174-6.172 2.651-2.651 7.5 7.5a1.866 1.866 0 010 2.65l-7.5 7.5zm16.099 19.847l2.653 2.653-13.125 13.125-2.651-2.653 13.123-13.125z"/><path d="M71.875 139.375h-3.75v-7.5h-7.5v-3.75H70c1.036 0 1.875.84 1.875 1.875zm69.922-83.826l2.653 2.651-13.125 13.125-2.651-2.651 13.123-13.125z"/><path d="M139.375 71.875H130A1.875 1.875 0 01128.125 70v-9.375h3.75v7.5h7.5zm-8.05 56.798l13.126 13.125-2.653 2.651-13.125-13.125z"/></g><path d="M131.875 139.375h-3.75V130c0-1.036.84-1.875 1.875-1.875h9.375v3.75h-7.5zM58.2 55.55l13.126 13.124-2.654 2.652-13.124-13.125z"/><path d="M70 71.875h-9.375v-3.75h7.5v-7.5h3.75V70c0 1.036-.84 1.875-1.875 1.875z"/></g></svg>