<?xml version="1.0" encoding="UTF-8"?><svg xmlns="http://www.w3.org/2000/svg" viewBox="0 0 100 100"><defs><style>.cls-1{fill:none;stroke:#324450;stroke-linecap:round;stroke-linejoin:round;stroke-width:2.86px;}</style></defs><path class="cls-1" d="m51.34,79.52c1.47.45,3.14.14,4.35-.98h0c1.82-1.67,1.94-4.5.27-6.32"/><path class="cls-1" d="m44.56,28.39c-4.4.85-8.89.87-13.12.54"/><path class="cls-1" d="m71.36,62.28c1.67,1.82,1.55,4.65-.27,6.32h0c-1.82,1.67-4.65,1.55-6.32-.27l-1.74-1.7"/><path class="cls-1" d="m63.67,67.25c1.67,1.82,1.55,4.65-.27,6.32h0c-1.82,1.67-4.65,1.55-6.32-.27l-1.1-1.09"/><path class="cls-1" d="m69.23,60.06l3.24,3.3c1.67,1.82,4.5,1.94,6.32.27h0c1.82-1.67,1.94-4.5.27-6.32l-1.59-1.78s-10.89-12.29-16.91-18.34c-2.68-2.69-6.86-3.22-10.12-1.27-1.06.64-2.25,1.5-3.57,2.65-6.33,5.51-9.91,0-9.91,0,0,0,7.39-16.03,21.44-16.03,4.81,0,8.76,2.92,14.14,4.97"/><path class="cls-1" d="m29.17,49.81c-1.75-1.51-4.36-1.45-6.03.15l-4.11,3.66c-1.82,1.67-1.94,4.5-.27,6.32h0c1.67,1.82,4.5,1.94,6.32.27l4.25-3.8c1.9-1.82,1.82-4.88-.16-6.6h0Z"/><path class="cls-1" d="m36.46,55.22c-1.75-1.51-4.36-1.45-6.03.15l-5.92,5.51c-1.82,1.67-1.94,4.5-.27,6.32h0c1.67,1.82,4.5,1.94,6.32.27l6.05-5.65c1.9-1.82,1.82-4.88-.16-6.6h0Z"/><path class="cls-1" d="m43.4,60.92c-1.77-1.48-4.38-1.38-6.02.25l-4.92,4.72c-1.79,1.7-1.87,4.53-.17,6.33h0c1.7,1.79,4.53,1.87,6.33.17l5.05-4.86c1.87-1.85,1.74-4.91-.28-6.6h0Z"/><path class="cls-1" d="m49.07,68.01c-1.75-1.51-4.36-1.45-6.03.15l-2.1,2.16c-1.82,1.67-1.94,4.5-.27,6.32h0c1.67,1.82,4.5,1.94,6.32.27l2.24-2.3c1.9-1.82,1.82-4.88-.16-6.6h0Z"/><rect class="cls-1" x="80.31" y="24.97" width="13.24" height="29.2" rx="3.45" ry="3.45" transform="translate(-6.01 17.55) rotate(-11.15)"/><rect class="cls-1" x=".33" y="28.63" width="29.2" height="13.24" rx="3.45" ry="3.45" transform="translate(-23.35 35.84) rotate(-67.93)"/></svg>