<svg version="1.0" viewBox="0 0 50 64" xmlns="http://www.w3.org/2000/svg"><path fill="#324450" d="M46 60H22v-2h22V36h2zM45 10h-9V1h2v7h7z"/><path fill="#324450" d="M7 60H0V0h37.414L46 8.586V20h-2V9.414L36.586 2H2v56h5zM12.707 54.292l5 5-1.414 1.414-5-5z"/><path d="M27 35a.999.999 0 01-.707-1.707l10-10a.999.999 0 011.414 0l8 8a.999.999 0 11-1.414 1.414L37 25.414l-9.293 9.293A.997.997 0 0127 35z" fill="#324450"/><path d="M9 64a1 1 0 01-.936-1.352l3-8c.051-.133.129-.255.229-.355l32-32a.999.999 0 011.414 0l5 5a.999.999 0 010 1.414l-32 32a1.008 1.008 0 01-.355.229l-8 3A1.004 1.004 0 019 64zm3.86-8.446l-2.151 5.737 5.737-2.151L47.586 28 44 24.414l-31.14 31.14z" fill="#324450"/><path d="M27 51a.997.997 0 01-.707-.293l-5-5a.999.999 0 111.414-1.414l5 5A.999.999 0 0127 51z" fill="#324450"/></svg>